<svg xmlns="http://www.w3.org/2000/svg" viewBox="0 0 1600 1200" width="1600" height="1200" style="width:100%;height:100%">
  <defs>
    <clipPath id="a">
      <path d="M0 0h1600v1200H0z"/>
    </clipPath>
    <clipPath id="q">
      <path d="M0 0h250v250H0z"/>
    </clipPath>
    <clipPath id="l">
      <path d="M0 0h250v250H0z"/>
    </clipPath>
    <clipPath id="m">
      <path fill="#fff" d="M193.085 32.447H51.596v175.532h141.489V32.447"/>
    </clipPath>
    <clipPath id="i">
      <path d="M0 0h1600v1200H0z"/>
    </clipPath>
    <clipPath id="j">
      <path fill="#fff" d="M886 681H549v171h337V681"/>
    </clipPath>
    <clipPath id="g">
      <path d="M0 0h1600v1200H0z"/>
    </clipPath>
    <clipPath id="h">
      <path fill="#fff" d="M1254.845 394.881h-307.13v533.09h307.13v-533.09"/>
    </clipPath>
    <clipPath id="e">
      <path d="M0 0h1600v1200H0z"/>
    </clipPath>
    <clipPath id="f">
      <path fill="#fff" d="M1226.325 831.444h-892.87v46.07h892.87v-46.07"/>
    </clipPath>
    <clipPath id="b">
      <path d="M0 0h1600v1200H0z"/>
    </clipPath>
    <clipPath id="c">
      <path fill="#fff" d="M612.5 243H491.25v169H612.5V243"/>
    </clipPath>
    <mask id="t">
      <path fill="#FBAD83" d="M30.25-52C18.273-69.827-54-82.5-53.75-23c.256 61.021 25.25 83.25 25.25 83.25S-12.25 84 19.75 80.75C31.041 79.603 40 74 45.5 41.25S41-36 30.25-52z" transform="translate(125 125)" display="block"/>
    </mask>
    <mask id="s">
      <path fill="#FBAD83" d="M30.25-52C18.273-69.827-55.585-85.031-53-23c2.5 60 21.75 82 21.75 82s19 25 51 21.75C31.041 79.603 40 74 45.5 41.25S41-36 30.25-52z" transform="translate(125 125)" display="block"/>
    </mask>
    <mask id="r">
      <path fill="#1A2249" d="M65.961-330.494s.237 34.869 3.831 40.435c3.595 5.567 19.172 6.775 24.57 4.453 5.398-2.321 14.171-10.694 16.363-17.779 2.194-7.085-35.579-17.202-35.579-17.202l-9.185-9.907z" transform="matrix(-1.25 0 0 1.25 253.125 574.875)" display="block"/>
    </mask>
    <mask id="p">
      <path fill="#A55B3A" d="M-169.642-230.937v58.506s9.821 8.348 27.109 7.346c15.988-.927 18.532-6.718 18.532-6.718l6.612-30.344-52.253-28.79z" transform="rotate(3.219 -10404.641 14781.99)" display="block"/>
    </mask>
    <mask id="o">
      <path fill="#FBAD83" d="M30.25-52c-11.977-17.827-90.796-32.231-85 29C-49 37.75-32 59.75-32 59.75s19.75 24.25 51.75 21C31.041 79.603 40 74 45.5 41.25S41-36 30.25-52z" transform="translate(125 125)" display="block"/>
    </mask>
    <mask id="n">
      <path fill="#FBAD83" d="M30.25-52c-11.977-17.827-90.796-32.231-85 29C-49 37.75-32 59.75-32 59.75s19.75 24.25 51.75 21C31.041 79.603 40 74 45.5 41.25S41-36 30.25-52z" transform="translate(125 125)" display="block"/>
    </mask>
    <mask id="k">
      <path fill="#FBAD83" d="M112.582-178.676v54.85s-9.208 7.825-25.415 6.886c-14.988-.868-17.374-6.298-17.374-6.298l-6.197-28.447 48.986-26.991" transform="rotate(-2.823 12258.704 -15850.406)" display="block"/>
    </mask>
    <mask id="d">
      <path fill="#FBAD83" d="M-206.712-214.912l-2.38 20.406s-2.792 4.725-17.581 4.722c-7.523-.002-12.368-2.698-12.368-2.698l.031-36.003 32.298 13.573z" transform="rotate(.467 -79411.224 102650.677) scale(1.27)" display="block"/>
    </mask>
  </defs>
  <g clip-path="url(#a)">
    <path fill="#222747" d="M748.875 731.924v120.919H603.176l-4.301-110.176 150-10.743z" display="block"/>
    <g display="block">
      <g>
        <path stroke-linecap="round" stroke-linejoin="round" stroke="#303D72" stroke-width="40" d="M911.025 476.153l-94.23 63.81-82.47-78.28" fill="none"/>
      </g>
    </g>
    <path fill="#303D72" d="M653.95 425.476l-52.223 18.16-17.89 301.497s96.02 26.09 135.127 18.841l39.106-7.248-6.267-301.7a11.674 11.674 0 00-7.959-10.828l-44.41-14.899-45.484-3.823z" display="block"/>
    <path fill="#26335E" d="M597.85 491.462L582.803 745.06s76.177 20.698 120.464 20.1L597.85 491.46z" display="block"/>
    <g display="block">
      <g>
        <path stroke-linecap="round" stroke-linejoin="round" stroke="#303D72" stroke-width="36" d="M479.163 610.502l84.73-57.35 45.45-91.58" fill="none"/>
      </g>
    </g>
    <g display="block">
      <g>
        <path stroke-linecap="round" stroke-linejoin="round" stroke="#E68D5C" stroke-width="36" d="M780 782l34.44-136.91s15.99-135.73 16.5-140.1" fill="none"/>
      </g>
    </g>
    <path fill="#0CBFD1" d="M801.973 541.536s8.623-48.196 23.428-61.406c10.669-9.52 20.897-9.069 28.011-7.313 7.113 1.756 13.248 26.41 5.762 59.417-5.186 22.87-5.844 25.273-5.844 25.273s-37.632.616-51.357-15.971z" display="block"/>
    <path fill="#303D72" d="M959.666 760.595s2.75 54.701 2.75 66.785c0 12.083-5.29 30.209-5.29 30.209h-90.335l6.559-92.049 86.316-4.945z" display="block"/>
    <g display="block">
      <g>
        <path stroke-linecap="round" stroke-linejoin="round" stroke="#E2E2E2" stroke-width="32" d="M689 832l-86.05-84.39-9.92-120.02" fill="none"/>
      </g>
    </g>
    <path fill="#F0F1F4" d="M522.552 599.668l-45.745 17.177a20.467 20.467 0 00-13.267 19.628l5.097 222.174 142.494 1.246-1.48-228.01a25.588 25.588 0 00-17.13-23.984l-30.186-10.57-39.783 2.34z" display="block"/>
    <path fill="#FFF" d="M522.552 599.668s10.563 19.614 27.031 19.445c16.467-.169 12.752-21.784 12.752-21.784l-39.783 2.34z" display="block"/>
    <path fill="#E2E2E2" d="M464.732 688.44l3.905 170.207 142.494 1.246-.99-41.586-117.347-65.555 11.417-85.517-39.479 21.205z" display="block"/>
    <g clip-path="url(#b)" transform="rotate(.501 -21980.988 -612.363)" display="block">
      <g clip-path="url(#c)">
        <path fill="#F9C200" d="M600.713 308.412s7.429 63.775 4.197 76.222c-3.232 12.447-34.682 9.685-50.407 8.304-15.725-1.38-24.031.684-30.873-3.181-6.84-3.866 6.021-43.653 6.021-43.653l71.062-37.692z" display="block"/>
        <path fill="#FFF" d="M582.784 396.996c-10.68-.289-19.134-9.214-18.845-19.895.237-8.73 6.322-16.26 14.799-18.31a.795.795 0 01.374 1.542c-7.782 1.884-13.369 8.797-13.586 16.811-.265 9.806 7.497 18 17.301 18.265 9.805.265 18-7.497 18.265-17.302.266-9.806-7.498-18-17.302-18.265a.794.794 0 01.043-1.587c10.68.289 19.135 9.214 18.846 19.895-.289 10.68-9.214 19.135-19.895 18.846z" display="block"/>
        <path fill="#FBAD83" d="M574.003 375.8l-3.234 25.89s-3.595 5.971-22.376 5.814c-9.554-.08-15.68-3.554-15.68-3.554l.413-45.722 40.877 17.571z" display="block"/>
        <g mask="url(#d)" display="block">
          <path fill="#E68D5C" d="M574.036 376.283l-2.53 17.774a34.65 34.65 0 01-10.21-1.026c-4.397-1.129-16.697-14.504-24.227-33.391l36.967 16.643z"/>
        </g>
        <path fill="#FBAD83" d="M600.303 294.497s3.278 43.537-3.36 64.416c-6.637 20.88-25.909 29.291-42.607 25.005-6.204-1.592-28.154-27.555-30.213-59.005-2.06-31.451.896-40.841 6.167-47.344 5.271-6.502 51.858-13.598 60.099-6.126 8.242 7.472 9.914 23.054 9.914 23.054z" display="block"/>
        <path fill="#F9C200" d="M585.488 292.539s13.737 20.437 17.255 21.11c3.519.675 4.302-12.65 3.711-24.677-.934-18.963-13.898-27.689-13.898-27.689l-7.068 31.256z" display="block"/>
        <path fill="#F9C200" d="M599.403 276.993s-4.83 23.293-14.089 37.063c-9.258 13.77-42.631 7.835-48.58 8.11-5.949.274 2 47.288 5.847 63.085 3.844 15.798-26.571 10.362-36.272 7.996-9.7-2.366-15.054-84.946-1.523-116.649 13.53-31.703 66.083-29.128 80.324-21.755 14.242 7.373 14.293 22.15 14.293 22.15z" display="block"/>
        <path fill="#FBAD83" d="M521.59 347.964c-.155 6.174 7.91 11.862 12.947 11.989 5.035.127 5.134-5.355 5.29-11.529.156-6.174-3.801-11.283-8.838-11.41-5.035-.127-9.243 4.776-9.399 10.95z" display="block"/>
        <path fill="#E68D5C" d="M525.623 345.334c.664-3.01 5.254-4.801 7.71-4.26 2.456.54-4.06 2.11-4.723 5.12-.665 3.013 2.714 6.115.26 5.574-2.458-.54-3.911-3.422-3.247-6.434z" display="block"/>
        <path fill="#FC7916" d="M561.288 334.803a1.587 1.587 0 01-.79-2.94l10.628-6.519c.38-.234.844-.295 1.27-.171l7.686 2.216a1.587 1.587 0 11-.88 3.05l-7.014-2.022-10.031 6.153c-.271.167-.573.24-.869.233zM604.189 333.098a1.57 1.57 0 01-.855-.278l-5.485-3.755-7.106 1.665a1.587 1.587 0 11-.725-3.09l7.788-1.826a1.583 1.583 0 011.26.235l6.062 4.152a1.587 1.587 0 01-.94 2.897z" display="block"/>
        <path fill="#FFF" d="M532.406 395.727c-10.68-.29-19.134-9.214-18.845-19.895.236-8.73 6.322-16.258 14.798-18.31a.795.795 0 01.374 1.542c-7.782 1.884-13.369 8.797-13.586 16.811-.265 9.806 7.497 18 17.302 18.265 9.804.265 18-7.497 18.264-17.303.266-9.805-7.497-18-17.302-18.264a.794.794 0 01.043-1.587c10.68.289 19.135 9.214 18.846 19.894-.289 10.681-9.214 19.136-19.894 18.847z" display="block"/>
      </g>
    </g>
    <g clip-path="url(#e)" display="block">
      <g clip-path="url(#f)">
        <path fill="#A9C2DC" d="M1214.5 859.227H347.832v-12.768H1214.5v12.768z" display="block"/>
        <path fill="#303D72" d="M1214.5 865.611H347.832v-6.384H1214.5v6.384z" display="block"/>
      </g>
    </g>
    <g clip-path="url(#g)" display="block">
      <g clip-path="url(#h)">
        <path fill="#303D72" d="M1097.319 861.83h-1.25V466.544h1.25V861.83zM1114.951 852.572h-1.25V504.811h1.25v347.761zM1108.702 864.102h-1.25V576.454h1.25v287.648zM1076.794 864.102h-1.25V638.6h1.25v225.502zM1125.664 861.83h-1.25V702.04h1.25v159.79z" display="block"/>
        <path fill="#303D72" d="M1068.388 549.838c20.825-11.395 44.985-7.332 53.961 9.073 8.977 16.405-.629 38.941-21.454 50.336-20.825 11.395-64.419 52.933-73.395 36.528-8.976-16.405 20.062-84.542 40.888-95.937zM1043.662 761.904c18.175-19.597 49.387-20.201 69.714-1.349 20.327 18.852 22.072 50.021 3.897 69.618-18.175 19.597-45.857 83.266-66.184 64.414-20.327-18.852-25.602-113.086-7.427-132.683z" display="block"/>
        <path fill="#00C99C" d="M1027.35 643.596c24.79-16.505 55.427-14.052 68.428 5.477 13.003 19.53 3.446 48.741-21.345 65.246-24.79 16.504-74.765 73.157-87.768 53.628-13-19.53 15.894-107.846 40.684-124.35z" display="block"/>
        <path fill="#00B98F" d="M1027.345 643.596c-23.327 15.531-50.284 94.642-42.55 120.197 21.938-64.563 35.998-83.601 58.364-106.943a108.295 108.295 0 0131.123-22.613c-14.213-3.766-31.679-.798-46.937 9.36z" display="block"/>
        <path fill="#00C99C" d="M1169.077 564.929c-28.296-9.292-57.167 1.245-64.488 23.535-7.319 22.291 9.683 47.893 37.979 57.185 28.296 9.293 91.573 50.56 98.894 28.269 7.321-22.29-44.089-99.696-72.385-108.989z" display="block"/>
        <path fill="#00B98F" d="M1169.081 564.928c26.626 8.744 73.712 77.796 73.077 104.487-38.369-56.368-56.999-70.966-84.783-87.495a108.299 108.299 0 00-36.026-13.49c12.693-7.42 30.317-9.221 47.732-3.502z" display="block"/>
        <path fill="#303D72" d="M1095.693 435.905c11.453 7.737 15.797 21.323 9.702 30.345-6.094 9.023-20.32 10.066-31.773 2.33-11.454-7.737-44.582-19.213-38.487-28.236 6.095-9.022 49.103-12.175 60.558-4.439z" display="block"/>
        <path fill="#00C99C" d="M1135.337 479.375c-18.364 7.369-28.545 25.071-22.74 39.537 5.806 14.466 25.397 20.219 43.761 12.85 18.364-7.368 68.188-13.43 62.382-27.895-5.804-14.466-65.04-31.86-83.403-24.492z" display="block"/>
        <path fill="#00B98F" d="M1135.338 479.374c17.28-6.935 70.744 8.058 81.83 21.905-43.608-12.269-59.324-11.73-80.521-8.26a71.974 71.974 0 00-24.09 8.54c3.285-9.2 11.479-17.65 22.78-22.185z" display="block"/>
        <path fill="#00C99C" d="M1032.537 793.32c25.913-14.681 56.294-10.035 67.86 10.378 11.565 20.412-.065 48.862-25.977 63.543-25.913 14.681-79.828 67.6-91.393 47.187-11.565-20.413 23.597-106.426 49.51-121.108z" display="block"/>
        <path fill="#00B98F" d="M1032.533 793.32c-24.384 13.815-56.953 90.786-51.075 116.83 26.52-62.82 41.91-80.8 65.897-102.476a108.28 108.28 0 0132.665-20.318c-13.905-4.776-31.54-3.072-47.487 5.963z" display="block"/>
        <path fill="#00C99C" d="M1191.702 713.862c-32.664-22.784-76.218-23.076-97.281-.653-21.063 22.422-11.658 59.067 21.005 81.85 32.665 22.782 95.247 97.22 116.31 74.798 21.063-22.422-7.37-133.213-40.034-155.995z" display="block"/>
        <path fill="#00B98F" d="M1191.707 713.862c30.737 21.438 57.721 120.796 43.25 151.13-21.938-81.08-39.113-105.803-67.404-136.663-13.32-14.53-28.135-24.38-40.74-30.91 20.57-3.067 44.791 2.42 64.894 16.443z" display="block"/>
      </g>
    </g>
    <path fill="#60D6E6" d="M901.908 455.623l59.856 24.303-1.016 289.839-143.252 4.855 3.252-284.539a16.198 16.198 0 017.739-13.633l30.676-18.788 42.745-2.037z" display="block"/>
    <path fill="#0CBFD1" d="M960.607 769.77l.87-247.52-24.28-4.735-48.468 254.69 71.878-2.435z" display="block"/>
    <path fill="#FBAD83" d="M583.176 809.62s24.987 7.187 37.813 11.25c12.827 4.063 20.781 10.468 20.156 12.656-.625 2.188-1.562 2.645-1.562 2.645h-52.188l-21.875-12.572 17.656-13.979z" display="block"/>
    <g display="block">
      <g>
        <path stroke-linejoin="round" stroke="#F0F1F4" stroke-width="36" d="M570 815l-117.18-51.02s28.16-120.48 29.07-124.36" fill="none"/>
      </g>
    </g>
    <g clip-path="url(#i)" display="block">
      <g clip-path="url(#j)">
        <path fill="#A9C2DC" d="M674.854 836.171h195.402a7.763 7.763 0 007.764-7.763V692.36a7.763 7.763 0 00-7.764-7.763H674.854v151.574z" display="block"/>
        <path fill="#19192B" d="M672.302 836.171h3.15a6.942 6.942 0 006.942-6.942v-137.69a6.942 6.942 0 00-6.942-6.942h-3.15v151.574z" display="block"/>
        <path fill="#FFF" d="M765.885 760.384c0 8.712 5.297 15.773 11.831 15.773 6.533 0 11.83-7.061 11.83-15.773 0-8.711-5.297-15.773-11.83-15.773-6.534 0-11.831 7.062-11.831 15.773z" display="block"/>
        <path fill="#19192B" d="M560.474 846.459h111.828v-10.288H560.474v10.288z" display="block"/>
        <path fill="#303D72" d="M672.302 846.459h199.215v-10.288H672.302v10.288z" display="block"/>
      </g>
    </g>
    <path fill="#FBAD83" d="M899.1 400.466l2.701 54.783s-8.811 8.27-25.045 8.13c-15.012-.13-17.663-5.435-17.663-5.435l-7.59-28.107 47.597-29.371" display="block"/>
    <g mask="url(#k)" display="block">
      <path fill="#E68D5C" d="M858.193 453.604c3.751-1.75 9.336-5.013 15.91-10.99 12.13-11.028 14.624-23.787 14.624-23.787l-32.382 8.415-4.858 3.112 6.706 23.25"/>
    </g>
    <g clip-path="url(#l)" transform="matrix(-.93794 .0622 .0622 .93794 967.212 242.47)" display="block">
      <g clip-path="url(#m)">
        <g display="block">
          <path fill="#E68D5C" d="M167.625 132.25h16"/>
          <path stroke="#1A2249" stroke-width="2.5" d="M167.625 132.25h16" fill="none"/>
        </g>
        <path fill="#69331E" d="M164.75 88.875c-2.625-9.875-9.125-.625-9.125-.625l10.125 31.625s2.657-17.242-1-31z" display="block"/>
        <path fill="#FBAD83" d="M155.25 73c-11.977-17.827-90.796-32.231-85 29C76 162.75 93 184.75 93 184.75s19.75 24.25 51.75 21c11.291-1.147 20.25-6.75 25.75-39.5S166 89 155.25 73z" display="block"/>
        <g mask="url(#n)" display="block">
          <path fill="#D48C68" d="M105.25 134.25l-45.25 6L61.75 187l57 22.75 56.75.25 11.75-41s-9.25-7.25-24.5-7.25c-20.5 0-26.5 10.5-38.25 10.25s-19.25-37.75-19.25-37.75z"/>
        </g>
        <g mask="url(#o)" display="block">
          <path fill="#7A4029" d="M180.5 51l-135 2.75 10.25 88.5s45.371-4.93 53.75-13.75c4.75-5-9-24.5 3.75-34.5 7.688-6.029 20.822-1.095 31.25 3.25 15 6.25 35-10 35-10l1-36.25z"/>
        </g>
        <path fill="#7A4029" d="M147.25 48.5l.75 10.25s-22.5-4.5-52.5-4.75-25.75 41.5-25.75 41.5l32-14.25s35.416 16.85 54.25 16c11.5 0 17.75-5.75 17.75-19.25s-26.5-29.5-26.5-29.5z" display="block"/>
        <path fill="#FBAD83" d="M91.487 124.496c-11.472.802-9.88 19.988-9.88 19.988s4.857 15.699 20.818 14.583c9.477-.663 2.855-27.266 2.855-27.266s-2.32-8.108-13.793-7.305z" display="block"/>
        <path fill="#E68D5C" d="M95.96 134.709c.099-.383-11.334.212-5.458 11.533 1.882 3.628 6.32 2.566 6.32 2.566s-7.861-8.473-.862-14.1z" display="block"/>
        <path stroke="#1A2249" stroke-width="2.5" d="M144 119.75c6.347 0 11.5 6.497 11.5 14.5s-5.153 14.5-11.5 14.5-11.5-6.497-11.5-14.5 5.153-14.5 11.5-14.5zM171.88 119.75c6.348 0 11.5 6.497 11.5 14.5s-5.152 14.5-11.5 14.5c-6.346 0-11.5-6.497-11.5-14.5s5.154-14.5 11.5-14.5z" fill="none" display="block"/>
        <g display="block">
          <path fill="#E68D5C" d="M106.25 132.25h26"/>
          <path stroke="#1A2249" stroke-width="2.5" d="M106.25 132.25h26" fill="none"/>
        </g>
        <g display="block">
          <path fill="#E68D5C" d="M155.625 132.25h6"/>
          <path stroke="#1A2249" stroke-width="2.5" d="M155.625 132.25h6" fill="none"/>
        </g>
        <path fill="#FFF" d="M147.474 172.704s2.1 11.11 12.063 10.238c8.716-.763 8.976-10.698 8.976-10.698l-21.04.46z" display="block"/>
      </g>
    </g>
    <path fill="#D7C5BE" d="M831.021 421.371l-.01.007c.975 8.263 2.87 15.906 5.86 22.19 5.956 12.532 15.424 17.136 25.669 17.136h.005c-10.241-.003-19.706-4.608-25.661-17.136-2.988-6.287-4.889-13.93-5.863-22.197" display="block"/>
    <g display="block">
      <g>
        <path stroke-linecap="round" stroke-linejoin="round" stroke="#FBAD83" stroke-width="30" d="M944.5 798.5l28.19-146.55L956 503.76" fill="none"/>
      </g>
    </g>
    <path fill="#FBAC83" d="M931.024 794.98c-7.83 10.94-11.249 16.354-15.438 23.867 15.545 30.962 45.23 8.516 45.23 8.516l-1.958-26.447s-11.45-21.357-27.834-5.937z" display="block"/>
    <path fill="#303D72" d="M906 805.5c-.932-2.033-11.5 21-11.5 21l-3.5 19 69 1V831s-43-1.5-54-25.5z" display="block"/>
    <path fill="#60D6E6" d="M942.496 555.217s-11.38-43.074-4.235-59.654c5.15-11.948 13.762-15.501 20.304-16.783 6.543-1.282 21.066 16.706 27.557 46.81 4.498 20.86 4.875 23.096 4.875 23.096s-30.81 14.948-48.5 6.53z" display="block"/>
    <path fill="#A55B3A" d="M905.036 455.935s2.404-4.64 12.769-4.052c10.364.588 14.057 5.924 15.427 11.958 1.37 6.035-8.927 12.574-16.65 12.844-7.723.27-16.49-5.489-16.975-8.789-.484-3.299 5.43-11.96 5.43-11.96zM464.212 635.96c-9.344-5.429-11.864-17.95-5.352-26.574a39.3 39.3 0 011.179-1.484c8.21-9.817 16.205-9.54 23.181-6.453 6.975 3.086 5.864 18.08.446 25.916-5.417 7.836-15.357 10.814-18.976 8.864a17.7 17.7 0 01-.478-.268z" display="block"/>
    <path fill="#FFF" d="M653.95 425.476l13.67 22.786 16.614-10.506 16.209 9.33-1.008-17.787-45.485-3.823z" display="block"/>
    <path fill="#A55B3A" d="M657.11 367.384l-3.284 58.414s9.337 8.886 26.654 8.856c16.015-.027 18.88-5.666 18.88-5.666l8.305-29.925-50.554-31.679z" display="block"/>
    <g mask="url(#p)" display="block">
      <path fill="#8E4A2F" d="M699.612 424.056c-8.781 1.439-18.513-4.52-25.665-10.894-13.199-11.759-17.566-33.857-17.566-33.857l44.937 16.305 5.272 3.304-6.978 25.142z"/>
    </g>
    <g clip-path="url(#q)" transform="rotate(3.219 -3620.461 10599.494) scale(.93)" display="block">
      <path fill="#1A2249" d="M167.361 88.875c-2.625-9.875-11.625-.625-11.625-.625l10.125 31.625s5.157-17.242 1.5-31z" display="block"/>
      <path fill="#A55B3A" d="M155.25 73c-11.977-17.827-79.75-29.5-82.5 29-2.865 60.954 24.75 83.25 24.75 83.25s15.25 23.75 47.25 20.5c11.291-1.147 20.25-6.75 25.75-39.5S166 89 155.25 73z" display="block"/>
      <g mask="url(#r)" display="block">
        <path fill="#1A2249" d="M182.862 158.07s-5.296 47.274-9.789 54.231c-4.494 6.959-19.465 8.469-26.212 5.567-6.748-2.902-17.714-13.368-20.454-22.224-2.743-8.857 39.974-30.19 39.974-30.19l16.48-7.384z"/>
      </g>
      <g mask="url(#s)" display="block">
        <path fill="#1A2249" d="M104.938 134.25l-45.25 6 1.75 46.75 57 22.75 56.75.25 11.75-41s-9.25-7.25-24.5-7.25c-20.5 0-26.5 10.5-38.25 10.25s-19.25-37.75-19.25-37.75z"/>
      </g>
      <g mask="url(#t)" display="block">
        <path fill="#1A2249" d="M180.188 51l-135 2.75 10.25 88.5s70.25 39.25 64 27.5c-4.346-8.17-19.25-70.5-6.5-80.5 7.688-6.029 25.066-6.348 36.25-4.75 21 3 27.5 2.75 27.5 2.75l3.5-36.25z"/>
      </g>
      <path fill="#1A2249" d="M145.25 55.75s-15.31-4.273-44.75 1.5c-25.5 5-28 38.25-28 38.25l29.25-14.25L156 87.5s19.238 3.024 14.198-9.5c-8.25-20.5-24.948-22.25-24.948-22.25z" display="block"/>
      <path fill="#A55B3A" d="M91.175 124.496c-11.472.802-9.88 19.988-9.88 19.988s4.857 15.699 20.818 14.583c9.477-.663 2.855-27.266 2.855-27.266s-2.32-8.108-13.793-7.305z" display="block"/>
      <path fill="#8F4B30" d="M95.649 134.709c.098-.383-11.335.212-5.46 11.533 1.883 3.628 6.32 2.566 6.32 2.566s-7.86-8.473-.86-14.1z" display="block"/>
      <path fill="#1A2249" d="M164.206 119.819c.17 0 .345-.029.516-.089.099-.034 1.466-.98 5.305.277.816.268 1.692-.24 1.932-1.072.237-.83-.281-1.594-1.075-1.932-4.696-2.003-6.936-.313-7.2-.222a1.563 1.563 0 00.522 3.038zM133.692 123.805c.435 0 .87-.181 1.179-.536.25-.283 5.843-6.452 15.96-3.225a1.563 1.563 0 00.95-2.978c-12.14-3.876-18.985 3.824-19.27 4.154a1.56 1.56 0 00.16 2.202 1.55 1.55 0 001.02.383z" display="block"/>
      <g display="block">
        <path fill="#FFF" d="M147.162 172.704s2.1 11.11 12.063 10.238c8.716-.763 8.977-10.698 8.977-10.698l-21.04.46z"/>
      </g>
    </g>
  </g>
</svg>