<?xml version="1.0" encoding="utf-8"?>
<!-- Generator: Adobe Illustrator 24.1.1, SVG Export Plug-In . SVG Version: 6.00 Build 0)  -->
<svg version="1.1" id="Layer_1" xmlns="http://www.w3.org/2000/svg" xmlns:xlink="http://www.w3.org/1999/xlink" x="0px" y="0px"
	 viewBox="0 0 565 400" style="enable-background:new 0 0 565 400;" xml:space="preserve">
<style type="text/css">
	.st0{fill:url(#SVGID_1_);}
	.st1{fill:#91B3FA;}
	.st2{opacity:0.6;fill:#FFFFFF;}
	.st3{opacity:0.78;fill:#FFFFFF;}
	.st4{fill:url(#SVGID_2_);}
	.st5{fill:url(#SVGID_3_);}
	.st6{opacity:0.6;}
	.st7{fill:#FFFFFF;}
	.st8{fill:url(#SVGID_4_);}
	.st9{fill:url(#SVGID_5_);}
	.st10{fill:url(#SVGID_6_);}
	.st11{fill:url(#SVGID_7_);}
	.st12{fill:url(#SVGID_8_);}
	.st13{opacity:0.5;fill:#FFFFFF;}
	.st14{fill:url(#SVGID_9_);}
	.st15{fill:url(#SVGID_10_);}
	.st16{fill:url(#SVGID_11_);}
	.st17{fill:url(#SVGID_12_);}
	.st18{fill:url(#SVGID_13_);}
	.st19{fill:url(#SVGID_14_);}
	.st20{fill:url(#SVGID_15_);}
	.st21{fill:url(#SVGID_16_);}
	.st22{fill:url(#SVGID_17_);}
	.st23{fill:url(#SVGID_18_);}
	.st24{fill:url(#SVGID_19_);}
	.st25{fill:url(#SVGID_20_);}
	.st26{fill:url(#SVGID_21_);}
	.st27{fill:url(#SVGID_22_);}
	.st28{fill:url(#SVGID_23_);}
	.st29{fill:url(#SVGID_24_);}
	.st30{fill:url(#SVGID_25_);}
	.st31{fill:url(#SVGID_26_);}
	.st32{fill:url(#SVGID_27_);}
	.st33{fill:url(#SVGID_28_);}
	.st34{fill:url(#SVGID_29_);}
	.st35{fill:url(#SVGID_30_);}
	.st36{fill:url(#SVGID_31_);}
	.st37{fill:url(#SVGID_32_);}
	.st38{fill:url(#SVGID_33_);}
	.st39{fill:url(#SVGID_34_);}
	.st40{fill:url(#SVGID_35_);}
	.st41{fill:url(#SVGID_36_);}
	.st42{fill:url(#SVGID_37_);}
	.st43{fill:url(#SVGID_38_);}
	.st44{fill:url(#SVGID_39_);}
</style>
<g id="Background">
</g>
<g>
	<linearGradient id="SVGID_1_" gradientUnits="userSpaceOnUse" x1="439.5141" y1="394.4041" x2="149.7969" y2="64.3461">
		<stop  offset="0" style="stop-color:#DAE3FE"/>
		<stop  offset="1" style="stop-color:#E9EFFD"/>
	</linearGradient>
	<path class="st0" d="M399.8,321.5c-58.3,61.6-148,43.4-161.2,40.4c-16.7-3.7-56.4-12.5-86-47.1c-45.4-53-40.8-135.9-5.7-191.8
		c10.2-16.3,44.5-64.6,108.9-75.1c3.8-0.6,71-10.5,125.2,34.9c7.3,6.1,19.1,17.2,29.4,33.4C442.3,166.3,457.5,260.6,399.8,321.5z"/>
	<g>
		<path class="st1" d="M273.3,63.1c0.7-3.2,4-5.1,7.1-4C301,66.4,372,90.7,433.2,98.8c2.8,0.4,4.7,3,4.3,5.7l-35.6,228.4
			c-0.5,3.1-3.4,5.3-6.5,4.8c-25.6-3.8-131.2-20-167.6-31.8c-2.2-0.7-3.5-3-3.1-5.3L273.3,63.1z"/>
		<path class="st2" d="M274.6,69.3c0.6-3.1,3.9-4.9,6.9-3.9c19.8,7.1,88.1,30.4,147,38.2c2.7,0.4,4.6,2.8,4.1,5.5L398.4,329
			c-0.5,3-3.3,5.1-6.3,4.6c-24.7-3.7-126.3-19.3-161.3-30.6c-2.1-0.7-3.4-2.9-2.9-5.1L274.6,69.3z"/>
		<path class="st3" d="M293.9,87.4c-1.8-0.5-3.6,0.8-4,2.6l-7.7,47.1c-0.3,1.6,0.7,3.1,2.3,3.4c8.6,2.1,35.3,8.4,50.7,10.8
			c1.7,0.3,3.4-0.8,3.8-2.5c2.1-8.7,8.1-34,8.4-45c0-1.8-1.2-3.4-2.9-3.8L293.9,87.4z"/>
		
			<linearGradient id="SVGID_2_" gradientUnits="userSpaceOnUse" x1="932.0168" y1="-366.6609" x2="854.7527" y2="-251.6329" gradientTransform="matrix(0.9785 0.2062 -0.2062 0.9785 -655.9918 264.157)">
			<stop  offset="0" style="stop-color:#FDF53F"/>
			<stop  offset="1" style="stop-color:#D93C65"/>
		</linearGradient>
		<circle class="st4" cx="315.8" cy="112.9" r="10.2"/>
		
			<linearGradient id="SVGID_3_" gradientUnits="userSpaceOnUse" x1="945.2104" y1="-357.7974" x2="867.9477" y2="-242.7716" gradientTransform="matrix(0.9785 0.2062 -0.2062 0.9785 -655.9918 264.157)">
			<stop  offset="0" style="stop-color:#FDF53F"/>
			<stop  offset="1" style="stop-color:#D93C65"/>
		</linearGradient>
		<path class="st5" d="M294.4,139.1l31.9,6.7c2,0.4,3.6-1.5,2.9-3.4c-1.8-4.8-6.2-12.2-16.1-14c-9.5-1.7-16.3,2.7-20,6.2
			C291.6,136.1,292.3,138.7,294.4,139.1z"/>
		<g class="st6">
			<path class="st7" d="M416.8,121c1,0.2,1.9-0.3,2.1-1.2c0.2-0.9-0.5-1.8-1.5-2L361.6,105c-1-0.2-1.7,0.4-1.6,1.4l0.1,0.8
				c0.1,1,1.1,2,2.1,2.2L416.8,121z"/>
		</g>
		<g class="st6">
			<path class="st7" d="M359.8,113.7c-1-0.2-1.7,0.4-1.6,1.4l0.1,0.8c0.1,1,1.1,2,2.1,2.2l54.6,11.5c1,0.2,1.9-0.3,2.1-1.2
				c0.2-0.9-0.5-1.8-1.5-2L359.8,113.7z"/>
		</g>
		<g class="st6">
			<path class="st7" d="M357.9,122.5c-1-0.2-1.7,0.4-1.6,1.4l0.1,0.8c0.1,1,1.1,2,2.1,2.2l54.6,11.5c1,0.2,1.9-0.3,2.1-1.2
				c0.2-0.9-0.5-1.8-1.5-2L357.9,122.5z"/>
		</g>
		<g class="st6">
			<path class="st7" d="M409.6,182.2c1,0.2,1.9-0.3,2-1.2c0.1-0.9-0.6-1.8-1.6-2l-130.9-28.7c-1-0.2-1.4,0.3-1,1.3l0.8,1.6
				c0.5,0.9,1.7,1.8,2.7,2L409.6,182.2z"/>
		</g>
		<g class="st6">
			<path class="st7" d="M277.3,159c-1-0.2-1.4,0.3-1,1.3l0.8,1.6c0.5,0.9,1.7,1.8,2.7,2l127.9,27c1,0.2,1.9-0.3,2-1.2
				c0.1-0.9-0.6-1.8-1.6-2L277.3,159z"/>
		</g>
		<path class="st2" d="M273.7,173.4c3.2,0.4,9.1,1.6,12.4,2.2c1.4,0.3,2.4,1.5,2.4,2.9c0.1,2.7,0,7.4-1.1,12.2
			c-0.3,1.4-1.7,2.3-3.2,2l-12-2.7c-1.5-0.3-2.5-1.7-2.3-3.2l1.3-11.5C271.4,174.1,272.5,173.2,273.7,173.4z"/>
		<g class="st6">
			<path class="st7" d="M294.9,182.7c-1-0.3-1.8,0.4-1.9,1.4l-0.1,2c-0.1,1,0.7,2,1.7,2.2l29.1,6.1c1,0.2,2-0.4,2.2-1.4l0.1-0.5
				c0.2-1-0.4-2-1.4-2.3L294.9,182.7z"/>
		</g>
		<path class="st2" d="M339,187.2c3.2,0.4,9.1,1.6,12.4,2.2c1.4,0.3,2.4,1.5,2.4,2.9c0.1,2.7,0,7.4-1.1,12.2c-0.3,1.4-1.7,2.3-3.2,2
			l-12-2.7c-1.5-0.3-2.5-1.7-2.3-3.2l1.3-11.5C336.7,187.9,337.8,187,339,187.2z"/>
		<g class="st6">
			<path class="st7" d="M360.2,196.5c-1-0.3-1.8,0.4-1.9,1.4l-0.1,2c-0.1,1,0.7,2,1.7,2.2l29.1,6.1c1,0.2,2-0.4,2.2-1.4l0.1-0.5
				c0.2-1-0.4-2-1.4-2.3L360.2,196.5z"/>
		</g>
		<g>
			<path class="st7" d="M281.2,221.7C281.1,221.7,281.1,221.7,281.2,221.7l-11.1-2.4c-1.6-0.3-2.7-1.7-2.5-3.2l1-9.5
				c0.1-0.6,0.3-1.1,0.8-1.4c0.5-0.4,1.2-0.6,1.9-0.5l0,0c0.9,0.1,2.3,0.3,3.7,0.5c3,0.4,6.7,0.8,8.7,1.2c1.5,0.3,2.6,1.5,2.6,2.8
				c0.1,2.3-0.8,6.3-1.8,10.5C284.2,221.2,282.7,222,281.2,221.7z M271.1,205.6c-0.4-0.1-0.9,0-1.2,0.3c-0.3,0.2-0.4,0.5-0.5,0.8
				l-1,9.5c-0.1,1,0.7,2,1.8,2.2l11,2.4c0,0,0,0,0,0c1.1,0.2,2.1-0.3,2.3-1.3c1-4.2,1.9-8.2,1.8-10.3c-0.1-1-0.9-1.8-1.9-2
				c-2-0.4-5.7-0.9-8.7-1.2C273.4,205.9,272.1,205.7,271.1,205.6L271.1,205.6z"/>
			<path class="st2" d="M272.1,206.8c2.4,0.3,7.5,0.9,9.9,1.4c1,0.2,1.8,1,1.8,1.9c0.1,1.8-0.7,5.2-1.4,8.3
				c-0.2,0.9-1.2,1.5-2.3,1.3l-8.8-1.9c-1.1-0.2-1.8-1.2-1.7-2.2l0.8-7.6C270.4,207.2,271.2,206.7,272.1,206.8z"/>
			<g class="st6">
				<path class="st7" d="M292.2,217.6c0.1,1.3,1,2.4,2.2,2.6L397,240.9c1.2,0.2,2.3-0.5,2.5-1.7c0.2-1.1-0.5-2.2-1.6-2.5l-102.3-22
					C293.8,214.3,292.1,215.8,292.2,217.6z"/>
			</g>
			
				<linearGradient id="SVGID_4_" gradientUnits="userSpaceOnUse" x1="930.0068" y1="-292.9068" x2="872.2756" y2="-194.3732" gradientTransform="matrix(0.9785 0.2062 -0.2062 0.9785 -655.9918 264.157)">
				<stop  offset="0" style="stop-color:#A737D5"/>
				<stop  offset="1" style="stop-color:#EF497A"/>
			</linearGradient>
			<path class="st8" d="M272.3,208.3L272.3,208.3c0.9-0.3,1.9,0.2,2.2,1.1l1.4,4.4c0.1,0.4,0.7,0.5,1,0.2l8-10.9
				c0.4-0.5,1.2-0.2,1.1,0.5c-0.8,3.7-3.3,10.5-10.4,15.1c0,0-3-1.9-4.4-8.2C270.9,209.6,271.4,208.6,272.3,208.3z"/>
			<path class="st7" d="M276.2,245.4C276.2,245.4,276.1,245.4,276.2,245.4l-11.1-2.4c-1.6-0.3-2.7-1.7-2.5-3.2l1-9.5
				c0.1-0.6,0.3-1.1,0.8-1.4c0.5-0.4,1.2-0.6,1.9-0.5l0,0c0.9,0.1,2.3,0.3,3.7,0.5c3,0.4,6.7,0.8,8.7,1.2c0,0,0,0,0,0
				c1.5,0.3,2.5,1.5,2.6,2.8c0.1,2.3-0.8,6.3-1.8,10.5C279.2,244.9,277.7,245.7,276.2,245.4z M266.1,229.3c-0.4-0.1-0.9,0-1.2,0.3
				c-0.3,0.2-0.4,0.5-0.5,0.8l-1,9.5c-0.1,1,0.7,2,1.8,2.2l11,2.4c0,0,0,0,0,0c1.1,0.2,2.1-0.3,2.3-1.3c1-4.2,1.9-8.2,1.8-10.3
				c-0.1-1-0.9-1.8-1.9-2c-2-0.4-5.7-0.9-8.7-1.2C268.4,229.6,267.1,229.4,266.1,229.3L266.1,229.3z"/>
			<path class="st2" d="M267.1,230.5c2.4,0.3,7.5,0.9,9.9,1.4c1,0.2,1.8,1,1.8,1.9c0.1,1.8-0.7,5.2-1.4,8.3
				c-0.2,0.9-1.2,1.5-2.3,1.3l-8.8-1.9c-1.1-0.2-1.8-1.2-1.7-2.2l0.8-7.6C265.5,230.9,266.2,230.4,267.1,230.5z"/>
			<g class="st6">
				<path class="st7" d="M287.2,241.3c0.1,1.3,1,2.4,2.2,2.6L392,264.6c1.2,0.2,2.3-0.5,2.5-1.7c0.2-1.1-0.5-2.2-1.6-2.5l-102.3-22
					C288.8,238,287.1,239.5,287.2,241.3z"/>
			</g>
			
				<linearGradient id="SVGID_5_" gradientUnits="userSpaceOnUse" x1="940.5752" y1="-286.7145" x2="882.8439" y2="-188.1807" gradientTransform="matrix(0.9785 0.2062 -0.2062 0.9785 -655.9918 264.157)">
				<stop  offset="0" style="stop-color:#A737D5"/>
				<stop  offset="1" style="stop-color:#EF497A"/>
			</linearGradient>
			<path class="st9" d="M267.3,232.1L267.3,232.1c0.9-0.3,1.9,0.2,2.2,1.1l1.4,4.4c0.1,0.4,0.7,0.5,1,0.2l8-10.9
				c0.4-0.5,1.2-0.2,1.1,0.5c-0.8,3.7-3.3,10.5-10.4,15.1c0,0-3-1.9-4.4-8.2C265.9,233.3,266.4,232.3,267.3,232.1z"/>
			<path class="st7" d="M271.2,269.1C271.2,269.1,271.1,269.1,271.2,269.1l-11.1-2.4c-1.6-0.3-2.7-1.7-2.5-3.2l1-9.5
				c0.1-0.6,0.3-1.1,0.8-1.4c0.5-0.4,1.2-0.6,1.9-0.5l0,0c0.9,0.1,2.3,0.3,3.7,0.5c3,0.4,6.7,0.8,8.7,1.2c0,0,0,0,0,0
				c1.5,0.3,2.5,1.5,2.6,2.8c0.1,2.3-0.8,6.3-1.8,10.5C274.2,268.6,272.7,269.5,271.2,269.1z M261.1,253c-0.4-0.1-0.9,0-1.2,0.3
				c-0.3,0.2-0.4,0.5-0.5,0.8l-1,9.5c-0.1,1,0.7,2,1.8,2.2l11,2.4c0,0,0,0,0,0c1.1,0.2,2.1-0.3,2.3-1.3c1-4.2,1.9-8.2,1.8-10.3
				c-0.1-1-0.9-1.8-1.9-2c-2-0.4-5.7-0.9-8.7-1.2C263.4,253.3,262.1,253.1,261.1,253L261.1,253z"/>
			<path class="st2" d="M262.1,254.2c2.4,0.3,7.5,0.9,9.9,1.4c1,0.2,1.8,1,1.8,1.9c0.1,1.8-0.7,5.2-1.4,8.3
				c-0.2,0.9-1.2,1.5-2.3,1.3l-8.8-1.9c-1.1-0.2-1.8-1.2-1.7-2.2l0.8-7.6C260.5,254.6,261.2,254.1,262.1,254.2z"/>
			<g class="st6">
				<path class="st7" d="M282.2,265c0.1,1.3,1,2.4,2.2,2.6L387,288.3c1.2,0.2,2.3-0.5,2.5-1.7c0.2-1.1-0.5-2.2-1.6-2.5l-102.3-22
					C283.8,261.7,282.1,263.2,282.2,265z"/>
			</g>
			
				<linearGradient id="SVGID_6_" gradientUnits="userSpaceOnUse" x1="949.4612" y1="-262.4249" x2="873.4989" y2="-156.5118" gradientTransform="matrix(0.9785 0.2062 -0.2062 0.9785 -655.9918 264.157)">
				<stop  offset="0" style="stop-color:#A737D5"/>
				<stop  offset="1" style="stop-color:#EF497A"/>
			</linearGradient>
			<path class="st10" d="M262.3,255.8L262.3,255.8c0.9-0.3,1.9,0.2,2.2,1.1l1.4,4.4c0.1,0.4,0.7,0.5,1,0.2l8-10.9
				c0.4-0.5,1.2-0.2,1.1,0.5c-0.8,3.7-3.3,10.5-10.4,15.1c0,0-3-1.9-4.4-8.2C260.9,257,261.4,256.1,262.3,255.8z"/>
			<path class="st7" d="M266.2,292.8C266.2,292.8,266.1,292.8,266.2,292.8l-11.1-2.4c-1.6-0.3-2.7-1.7-2.5-3.2l1-9.5
				c0.1-0.6,0.3-1.1,0.8-1.4c0.5-0.4,1.2-0.6,1.9-0.5l0,0c0.9,0.1,2.3,0.3,3.7,0.5c3,0.4,6.7,0.8,8.7,1.2c0,0,0,0,0,0
				c1.5,0.3,2.5,1.5,2.6,2.8c0.1,2.3-0.8,6.3-1.8,10.5C269.2,292.3,267.7,293.2,266.2,292.8z M256.1,276.7c-0.4-0.1-0.9,0-1.2,0.3
				c-0.3,0.2-0.4,0.5-0.5,0.8l-1,9.5c-0.1,1,0.7,2,1.8,2.2l11,2.4c0,0,0,0,0,0c1.1,0.2,2.1-0.3,2.3-1.3c1-4.2,1.9-8.2,1.8-10.3
				c-0.1-1-0.9-1.8-1.9-2c-2-0.4-5.7-0.9-8.7-1.2C258.4,277,257.1,276.8,256.1,276.7L256.1,276.7z"/>
			<path class="st2" d="M257.1,277.9c2.4,0.3,7.5,0.9,9.9,1.4c1,0.2,1.8,1,1.8,1.9c0.1,1.8-0.7,5.2-1.4,8.3
				c-0.2,0.9-1.2,1.5-2.3,1.3l-8.8-1.9c-1.1-0.2-1.8-1.2-1.7-2.2l0.8-7.6C255.5,278.3,256.2,277.8,257.1,277.9z"/>
			<g class="st6">
				<path class="st7" d="M277.2,288.7L277.2,288.7c0.1,1.3,1,2.4,2.2,2.6L382,312c1.2,0.2,2.3-0.5,2.5-1.7c0.2-1.1-0.5-2.2-1.6-2.5
					l-102.3-22C278.8,285.5,277.1,286.9,277.2,288.7z"/>
			</g>
			
				<linearGradient id="SVGID_7_" gradientUnits="userSpaceOnUse" x1="961.712" y1="-274.33" x2="903.9807" y2="-175.7962" gradientTransform="matrix(0.9785 0.2062 -0.2062 0.9785 -655.9918 264.157)">
				<stop  offset="0" style="stop-color:#A737D5"/>
				<stop  offset="1" style="stop-color:#EF497A"/>
			</linearGradient>
			<path class="st11" d="M257.3,279.5L257.3,279.5c0.9-0.3,1.9,0.2,2.2,1.1l1.4,4.4c0.1,0.4,0.7,0.5,1,0.2l8-10.9
				c0.4-0.5,1.2-0.2,1.1,0.5c-0.8,3.7-3.3,10.5-10.4,15.1c0,0-3-1.9-4.4-8.2C255.9,280.7,256.4,279.8,257.3,279.5z"/>
		</g>
	</g>
	<g>
		<path class="st1" d="M119.1,93.9c-0.7-3.2,1.7-6.3,4.9-6.5c21.8-1.4,96.6-7.4,155.9-24.2c2.7-0.8,5.5,0.8,6.2,3.6l58,223.8
			c0.8,3.1-1,6.2-4.1,7c-25.1,6.7-128.4,33.7-166.4,37.3c-2.3,0.2-4.4-1.3-4.9-3.6L119.1,93.9z"/>
		<path class="st2" d="M122.7,99.1c-0.6-3.1,1.6-6.1,4.8-6.3c21-1.4,92.9-7.1,150.1-23.3c2.6-0.7,5.3,0.8,6,3.4l55.8,215.4
			c0.8,3-1,6-3.9,6.8c-24.1,6.4-123.5,32.4-160.2,35.9c-2.2,0.2-4.3-1.3-4.7-3.5L122.7,99.1z"/>
		<path class="st3" d="M145,112l11.6,46.2c0.4,1.5,1.9,2.5,3.5,2.2c8.7-1.5,35.8-6.3,50.8-10.2c1.7-0.4,2.8-2.1,2.5-3.8
			c-1.5-8.8-6-34.4-10.2-44.7c-0.7-1.7-2.4-2.6-4.2-2.3l-51.5,8.6C145.8,108.4,144.6,110.2,145,112z"/>
		
			<ellipse transform="matrix(0.2976 -0.9547 0.9547 0.2976 7.6982 255.9926)" class="st1" cx="177.8" cy="122.8" rx="10.2" ry="10.2"/>
		<path class="st1" d="M168.6,155.3l32-6.5c2-0.4,2.7-2.8,1.3-4.2c-3.6-3.7-10.5-8.8-20.3-6.5c-9.4,2.2-13.9,9-15.9,13.6
			C164.8,153.6,166.5,155.7,168.6,155.3z"/>
		<g class="st6">
			<path class="st7" d="M273.7,90.1c1-0.2,1.7-1.1,1.5-1.9c-0.2-0.9-1.2-1.4-2.2-1.2l-56.2,10.4c-1,0.2-1.4,1.1-0.9,1.9l0.4,0.7
				c0.5,0.9,1.8,1.4,2.8,1.2L273.7,90.1z"/>
		</g>
		<g class="st6">
			<path class="st7" d="M218.5,106.1c-1,0.2-1.4,1.1-0.9,1.9l0.4,0.7c0.5,0.9,1.8,1.4,2.8,1.2l54.6-11.1c1-0.2,1.7-1.1,1.5-1.9
				c-0.2-0.9-1.2-1.4-2.2-1.2L218.5,106.1z"/>
		</g>
		<g class="st6">
			<path class="st7" d="M220.3,114.9c-1,0.2-1.4,1.1-0.9,1.9l0.4,0.7c0.5,0.9,1.8,1.4,2.8,1.2l54.6-11.1c1-0.2,1.7-1.1,1.5-1.9
				c-0.2-0.9-1.2-1.4-2.2-1.2L220.3,114.9z"/>
		</g>
		<g class="st6">
			<path class="st7" d="M291.4,149.1c1-0.2,1.6-1.1,1.4-1.9c-0.2-0.8-1.2-1.4-2.2-1.2L159,171.7c-1,0.2-1.2,0.9-0.4,1.5l1.3,1.1
				c0.8,0.7,2.2,1,3.2,0.8L291.4,149.1z"/>
		</g>
		<g class="st6">
			<path class="st7" d="M160.8,180.4c-1,0.2-1.2,0.9-0.4,1.5l1.3,1.1c0.8,0.7,2.2,1,3.2,0.8l128.1-26c1-0.2,1.6-1.1,1.4-1.9
				c-0.2-0.8-1.2-1.4-2.2-1.2L160.8,180.4z"/>
		</g>
		<path class="st2" d="M163.2,195c3.1-0.9,9-2.2,12.2-2.9c1.4-0.3,2.8,0.4,3.4,1.7c1.2,2.5,2.9,6.8,3.8,11.6
			c0.3,1.4-0.7,2.8-2.1,3.1l-12,2.3c-1.5,0.3-2.9-0.6-3.4-2l-3.3-11.1C161.3,196.6,162,195.4,163.2,195z"/>
		<g class="st6">
			<path class="st7" d="M186.3,195.2c-1,0.2-1.5,1.1-1.2,2l0.7,1.9c0.3,1,1.5,1.6,2.5,1.4l29.2-5.9c1-0.2,1.6-1.2,1.4-2.2l-0.1-0.5
				c-0.2-1-1.2-1.7-2.2-1.5L186.3,195.2z"/>
		</g>
		<path class="st2" d="M228.6,181.7c3.1-0.9,9-2.2,12.2-2.9c1.4-0.3,2.8,0.4,3.4,1.7c1.2,2.5,2.9,6.8,3.8,11.6
			c0.3,1.4-0.7,2.8-2.1,3.1l-12,2.3c-1.5,0.3-2.9-0.6-3.4-2l-3.3-11.1C226.8,183.3,227.4,182.1,228.6,181.7z"/>
		<g class="st6">
			<path class="st7" d="M251.7,181.9c-1,0.2-1.5,1.1-1.2,2l0.7,1.9c0.3,1,1.5,1.6,2.5,1.4l29.2-5.9c1-0.2,1.6-1.2,1.4-2.2l-0.1-0.5
				c-0.2-1-1.2-1.7-2.2-1.5L251.7,181.9z"/>
		</g>
		<g>
			<path class="st7" d="M189.2,236.4C189.2,236.4,189.2,236.4,189.2,236.4l-11.1,2.2c-1.6,0.3-3.1-0.5-3.6-1.9l-2.9-9.1
				c-0.2-0.5-0.1-1.1,0.2-1.6c0.3-0.6,0.9-1,1.5-1.2l0,0c0.9-0.3,2.2-0.6,3.6-1c2.9-0.8,6.5-1.9,8.5-2.3c1.5-0.3,2.9,0.3,3.5,1.5
				c1,2,1.8,6.1,2.5,10.4C191.8,234.7,190.7,236.1,189.2,236.4z M173.6,225.6c-0.4,0.1-0.8,0.4-1,0.8c-0.2,0.3-0.2,0.6-0.1,0.9
				l2.9,9.1c0.3,1,1.4,1.5,2.6,1.3l11.1-2.1c0,0,0,0,0,0c1.1-0.2,1.8-1.2,1.6-2.1c-0.8-4.3-1.5-8.2-2.5-10.2
				c-0.4-0.9-1.5-1.3-2.6-1.1c-2,0.4-5.6,1.5-8.4,2.3C175.8,224.9,174.5,225.3,173.6,225.6L173.6,225.6z"/>
			<path class="st2" d="M175,226.3c2.3-0.6,7.2-2.2,9.6-2.7c1-0.2,2,0.2,2.4,1c0.8,1.6,1.4,5,2,8.2c0.2,0.9-0.5,1.9-1.6,2.1
				l-8.9,1.7c-1.1,0.2-2.1-0.3-2.4-1.3l-2.3-7.3C173.6,227.3,174.1,226.5,175,226.3z"/>
			<g class="st6">
				<path class="st7" d="M197.7,228.2c0.6,1.2,1.8,1.8,3.1,1.5l102.3-21.7c1.2-0.2,1.9-1.4,1.6-2.5c-0.3-1.1-1.4-1.8-2.5-1.6
					l-102.6,20.4C197.8,224.6,196.9,226.6,197.7,228.2z"/>
			</g>
			<path class="st7" d="M194,260.1C194,260.1,194,260.1,194,260.1l-11.1,2.2c-1.6,0.3-3.1-0.5-3.6-1.9l-2.9-9.1
				c-0.2-0.5-0.1-1.1,0.2-1.6c0.3-0.6,0.9-1,1.5-1.2l0,0c0.9-0.3,2.2-0.6,3.6-1c2.9-0.8,6.5-1.9,8.5-2.3c0,0,0,0,0,0
				c1.5-0.3,2.9,0.3,3.5,1.5c1,2,1.8,6.1,2.5,10.4C196.6,258.4,195.5,259.8,194,260.1z M178.4,249.3c-0.4,0.1-0.8,0.4-1,0.8
				c-0.2,0.3-0.2,0.6-0.1,0.9l2.9,9.1c0.3,1,1.4,1.5,2.6,1.3l11.1-2.1c0,0,0,0,0,0c1.1-0.2,1.8-1.2,1.6-2.1
				c-0.8-4.3-1.5-8.2-2.5-10.2c-0.4-0.9-1.5-1.3-2.6-1.1c-2,0.4-5.6,1.5-8.4,2.3C180.6,248.7,179.3,249.1,178.4,249.3L178.4,249.3z"
				/>
			<path class="st2" d="M179.8,250c2.3-0.6,7.2-2.2,9.6-2.7c1-0.2,2,0.2,2.4,1c0.8,1.6,1.4,5,2,8.2c0.2,0.9-0.5,1.9-1.6,2.1
				l-8.9,1.7c-1.1,0.2-2.1-0.3-2.4-1.3l-2.3-7.3C178.4,251.1,178.9,250.3,179.8,250z"/>
			<g class="st6">
				<path class="st7" d="M202.5,252c0.6,1.2,1.8,1.8,3.1,1.5l102.3-21.7c1.2-0.2,1.9-1.4,1.6-2.5c-0.3-1.1-1.4-1.8-2.5-1.6
					L204.5,248C202.7,248.4,201.7,250.3,202.5,252z"/>
			</g>
			<path class="st7" d="M198.8,283.9C198.8,283.9,198.8,283.9,198.8,283.9l-11.1,2.2c-1.6,0.3-3.1-0.5-3.6-1.9l-2.9-9.1
				c-0.2-0.5-0.1-1.1,0.2-1.6c0.3-0.6,0.9-1,1.5-1.2l0,0c0.9-0.3,2.2-0.6,3.6-1c2.9-0.8,6.5-1.9,8.5-2.3c0,0,0,0,0,0
				c1.5-0.3,2.9,0.3,3.5,1.5c1,2,1.8,6.1,2.5,10.4C201.4,282.2,200.4,283.6,198.8,283.9z M183.2,273.1c-0.4,0.1-0.8,0.4-1,0.8
				c-0.2,0.3-0.2,0.6-0.1,0.9l2.9,9.1c0.3,1,1.4,1.5,2.6,1.3l11.1-2.1c0,0,0,0,0,0c1.1-0.2,1.8-1.2,1.6-2.1
				c-0.8-4.3-1.5-8.2-2.5-10.2c-0.4-0.9-1.5-1.3-2.6-1.1c-2,0.4-5.6,1.5-8.4,2.3C185.4,272.4,184.1,272.8,183.2,273.1L183.2,273.1z"
				/>
			<path class="st2" d="M184.6,273.8c2.3-0.6,7.2-2.2,9.6-2.7c1-0.2,2,0.2,2.4,1c0.8,1.6,1.4,5,2,8.2c0.2,0.9-0.5,1.9-1.6,2.1
				l-8.9,1.7c-1.1,0.2-2.1-0.3-2.4-1.3l-2.3-7.3C183.3,274.8,183.8,274,184.6,273.8z"/>
			<g class="st6">
				<path class="st7" d="M207.3,275.7c0.6,1.2,1.8,1.8,3.1,1.5l102.3-21.7c1.2-0.2,1.9-1.4,1.6-2.5c-0.3-1.1-1.4-1.8-2.5-1.6
					l-102.6,20.4C207.5,272.1,206.5,274.1,207.3,275.7z"/>
			</g>
			<path class="st7" d="M203.7,307.6C203.7,307.6,203.6,307.6,203.7,307.6l-11.1,2.2c-1.6,0.3-3.1-0.5-3.6-1.9l-2.9-9.1
				c-0.2-0.5-0.1-1.1,0.2-1.6c0.3-0.6,0.9-1,1.5-1.2l0,0c0.9-0.3,2.2-0.6,3.6-1c2.9-0.8,6.5-1.9,8.5-2.3c0,0,0,0,0,0
				c1.5-0.3,2.9,0.3,3.5,1.5c1,2,1.8,6.1,2.5,10.4C206.2,305.9,205.2,307.3,203.7,307.6z M188,296.8c-0.4,0.1-0.8,0.4-1,0.8
				c-0.2,0.3-0.2,0.6-0.1,0.9l2.9,9.1c0.3,1,1.4,1.5,2.6,1.3l11.1-2.1c0,0,0,0,0,0c1.1-0.2,1.8-1.2,1.6-2.1
				c-0.8-4.3-1.5-8.2-2.5-10.2c-0.4-0.9-1.5-1.3-2.6-1.1c-2,0.4-5.6,1.5-8.4,2.3C190.3,296.2,189,296.6,188,296.8L188,296.8z"/>
			<path class="st2" d="M189.4,297.5c2.3-0.6,7.2-2.2,9.6-2.7c1-0.2,2,0.2,2.4,1c0.8,1.6,1.4,5,2,8.2c0.2,0.9-0.5,1.9-1.6,2.1
				l-8.9,1.7c-1.1,0.2-2.1-0.3-2.4-1.3l-2.3-7.3C188.1,298.6,188.6,297.8,189.4,297.5z"/>
			<g class="st6">
				<path class="st7" d="M212.1,299.5L212.1,299.5c0.6,1.2,1.8,1.8,3.1,1.5l102.3-21.7c1.2-0.2,1.9-1.4,1.6-2.5
					c-0.3-1.1-1.4-1.8-2.5-1.6l-102.6,20.4C212.3,295.9,211.3,297.8,212.1,299.5z"/>
			</g>
			
				<linearGradient id="SVGID_8_" gradientUnits="userSpaceOnUse" x1="-440.6598" y1="539.403" x2="-498.39" y2="637.9349" gradientTransform="matrix(0.98 -0.199 0.199 0.98 558.2067 -429.3045)">
				<stop  offset="0" style="stop-color:#A737D5"/>
				<stop  offset="1" style="stop-color:#EF497A"/>
			</linearGradient>
			<path class="st12" d="M190.2,298.9L190.2,298.9c0.7-0.6,1.8-0.6,2.5,0.2l3,3.5c0.3,0.3,0.9,0.2,1-0.2l3-13.2
				c0.1-0.7,1.1-0.6,1.2,0c0.7,3.7,1.1,10.9-3.6,18c0,0-3.5-0.6-7.3-5.8C189.4,300.6,189.5,299.5,190.2,298.9z"/>
		</g>
	</g>
	<g>
		<g>
			<path class="st1" d="M185.4,287.6c1,10.7,3.4,24.8,6.3,36.9h1.8c-3.7-14.7-7.1-34.7-6.1-57.9c1-23.3,6.7-51.7-3.9-65.2
				c-8.9-11.3-46.5-12.9-58.9-13.2c-1.5,0-2.4,1.8-1.5,3c4.7,6,14.7,19.8,15.5,31.9c1.1,15.9,13.5,28.4,25.8,33.6
				C176.8,261.8,183.4,265.8,185.4,287.6z"/>
			<path class="st13" d="M140.1,198c7.6,1.9,14.8,5.4,21.1,10.2c3.2,2.4,6,5.2,8.5,8.3c2.4,3.1,4.5,6.6,5.9,10.3l0.5,1.4
				c0.2,0.5,0.3,0.9,0.5,1.4c0.1,0.5,0.3,1,0.4,1.4l0.4,1.4c0.5,1.9,1,3.8,1.5,5.7c1,3.8,1.9,7.6,2.7,11.4
				c1.7,7.6,3.1,15.3,4.1,23.1c0,0.2-0.1,0.4-0.3,0.4c-0.2,0-0.3-0.1-0.4-0.3l0,0c-0.7-3.8-1.5-7.6-2.3-11.4
				c-0.8-3.8-1.7-7.6-2.6-11.4l-1.4-5.7l-1.4-5.7c-0.5-1.9-1-3.8-1.5-5.6l-0.4-1.4c-0.1-0.5-0.3-0.9-0.4-1.4
				c-0.1-0.5-0.3-0.9-0.4-1.4l-0.5-1.3c-1.3-3.6-3.3-6.9-5.6-9.9c-1.2-1.5-2.4-3-3.8-4.3l-0.5-0.5l-0.5-0.5c-0.4-0.3-0.7-0.7-1.1-1
				c-0.7-0.6-1.4-1.3-2.2-1.9c-3-2.4-6.3-4.5-9.7-6.3c-3.4-1.8-7-3.3-10.7-4.4l0,0c-0.1,0-0.2-0.2-0.2-0.3
				C139.8,198.1,139.9,198,140.1,198z"/>
		</g>
		<g>
			<path class="st1" d="M185.8,302c6.4,9.5,5.6,14.7,5.8,19.2c0,0.8,0.1,1.9,0.2,3.2h1.8c-0.4-1.8-0.6-3.7-0.7-5.5
				c-0.6-12.4-3.4-33.5-14.1-46.1c-10.7-12.6-22.4-13.8-37.1-2.3c-12.3,9.6-19.9,14.4-24.4,15.3c-1.1,0.2-1.7,1.5-1.1,2.5
				c2.9,5.3,11,17.5,24.7,16.6C158.2,303.9,179.4,292.6,185.8,302z"/>
			<path class="st13" d="M146.7,285.8c1-0.9,2-1.7,3-2.5c1.1-0.8,2.1-1.6,3.3-2.2c2.3-1.4,4.7-2.6,7.2-3.4c1.3-0.4,2.6-0.7,3.9-0.9
				c1.3-0.2,2.7-0.2,4.1,0c0.3,0.1,0.7,0.1,1,0.2c0.3,0.1,0.7,0.1,1,0.2l1.9,0.6l1.9,0.7l1.8,0.9c2.4,1.3,4.5,3,6.3,5
				c1.8,2,3.2,4.3,4.4,6.7l0.4,0.9c0.2,0.3,0.3,0.6,0.4,0.9c0.2,0.6,0.5,1.2,0.7,1.8l0.6,1.9c0.2,0.6,0.4,1.3,0.6,1.9
				c0.7,2.5,1.2,5.1,1.7,7.7c0,0.1-0.1,0.3-0.2,0.3c-0.1,0-0.3-0.1-0.3-0.2l0,0c-0.6-2.5-1.2-5.1-2-7.5c-0.4-1.2-0.9-2.4-1.3-3.7
				c-0.2-0.6-0.5-1.2-0.8-1.8c-0.1-0.3-0.3-0.6-0.4-0.9l-0.4-0.9c-1.2-2.3-2.6-4.4-4.4-6.3c-1.7-1.9-3.8-3.4-6-4.6l-1.7-0.8
				l-1.8-0.7l-1.8-0.6c-0.3-0.1-0.6-0.1-0.9-0.2c-0.3-0.1-0.6-0.1-0.9-0.2c-1.2-0.2-2.5-0.2-3.7,0c-1.2,0.1-2.5,0.4-3.7,0.8
				c-2.4,0.7-4.8,1.8-7.1,3c-1.1,0.6-2.2,1.3-3.3,2c-1.1,0.7-2.2,1.5-3.2,2.3l0,0c-0.1,0.1-0.3,0.1-0.4,0
				C146.5,286.1,146.6,285.9,146.7,285.8z"/>
		</g>
	</g>
	<g>
		<linearGradient id="SVGID_9_" gradientUnits="userSpaceOnUse" x1="282.6522" y1="330.7539" x2="268.9372" y2="-75.2151">
			<stop  offset="0" style="stop-color:#09005D"/>
			<stop  offset="1" style="stop-color:#1A0F91"/>
		</linearGradient>
		<path class="st14" d="M186.2,116.9c0-9.7,7.9-17.5,17.5-17.5h149.1c8.2,0,15,6.4,15.4,14.7l11,216.2c0.3,6.4-4.7,11.9-11.2,12
			l-170.9,3.1c-6,0.1-11-4.8-11-10.8V116.9z"/>
		<g>
			<path class="st1" d="M198.4,102.7c0-3.1,2.7-5.5,5.8-5.1c20.4,2.8,90.4,11.3,148.3,6.9c2.6-0.2,4.9,1.8,5.1,4.4L369.1,326
				c0.2,3-2.1,5.5-5.1,5.7c-24.4,1.4-124.6,7-160.4,3.3c-2.2-0.2-3.8-2.1-3.8-4.2L198.4,102.7z"/>
			<path class="st2" d="M200.8,108.1c0-3,2.6-5.3,5.6-4.9c19.6,2.7,87,10.9,142.7,6.6c2.5-0.2,4.7,1.7,4.9,4.3l11.1,209
				c0.2,2.9-2,5.3-4.9,5.5c-23.4,1.4-119.9,6.7-154.4,3.1c-2.1-0.2-3.7-2-3.7-4.1L200.8,108.1z"/>
			<path class="st3" d="M218.9,124.2L221,169c0.1,1.5,1.3,2.7,2.8,2.7c8.3,0.2,34.2,0.9,48.8,0.1c1.7-0.1,3-1.4,3-3.1
				c0.3-8.4,0.9-32.9-1-43.1c-0.3-1.7-1.7-2.9-3.4-2.9l-49-1.7C220.3,121,218.8,122.5,218.9,124.2z"/>
			<linearGradient id="SVGID_10_" gradientUnits="userSpaceOnUse" x1="233.7256" y1="116.8987" x2="279.4429" y2="196.4469">
				<stop  offset="0" style="stop-color:#FF928E"/>
				<stop  offset="1" style="stop-color:#FE7062"/>
			</linearGradient>
			<circle class="st15" cx="247.1" cy="140.2" r="9.6"/>
			<linearGradient id="SVGID_11_" gradientUnits="userSpaceOnUse" x1="223.0472" y1="123.0357" x2="268.7646" y2="202.584">
				<stop  offset="0" style="stop-color:#FF928E"/>
				<stop  offset="1" style="stop-color:#FE7062"/>
			</linearGradient>
			<path class="st16" d="M232.5,168.5h30.7c1.9,0,3-2.1,2-3.7c-2.6-4.1-8.1-10.1-17.5-9.8c-9.1,0.3-14.5,5.7-17.2,9.6
				C229.3,166.3,230.5,168.5,232.5,168.5z"/>
			<g class="st6">
				<path class="st7" d="M341.6,128.1c1,0,1.7-0.7,1.7-1.5c0-0.8-0.8-1.5-1.8-1.5l-53.8-1c-1,0-1.5,0.7-1.2,1.6l0.3,0.7
					c0.3,0.9,1.4,1.6,2.3,1.6H341.6z"/>
			</g>
			<g class="st6">
				<path class="st7" d="M287.8,132.5c-1,0-1.5,0.7-1.2,1.6l0.3,0.7c0.3,0.9,1.4,1.6,2.3,1.6h52.5c1,0,1.7-0.7,1.7-1.5
					c0-0.8-0.8-1.5-1.8-1.5L287.8,132.5z"/>
			</g>
			<g class="st6">
				<path class="st7" d="M287.8,141c-1,0-1.5,0.7-1.2,1.6l0.3,0.7c0.3,0.9,1.4,1.6,2.3,1.6h52.5c1,0,1.7-0.7,1.7-1.5
					c0-0.8-0.8-1.5-1.8-1.5L287.8,141z"/>
			</g>
			<g class="st6">
				<path class="st7" d="M346.8,185.8c1,0,1.7-0.7,1.6-1.5c-0.1-0.8-0.9-1.5-1.8-1.5l-126-1c-1,0-1.3,0.6-0.7,1.4l1,1.3
					c0.6,0.8,1.9,1.4,2.8,1.4H346.8z"/>
			</g>
			<g class="st6">
				<path class="st7" d="M220.7,190.2c-1,0-1.3,0.6-0.7,1.4l1,1.3c0.6,0.8,1.9,1.4,2.8,1.4h123c1,0,1.7-0.7,1.6-1.5
					c-0.1-0.8-0.9-1.5-1.8-1.5L220.7,190.2z"/>
			</g>
			<linearGradient id="SVGID_12_" gradientUnits="userSpaceOnUse" x1="202.2401" y1="191.9012" x2="345.7925" y2="306.6515">
				<stop  offset="0" style="stop-color:#4F52FF"/>
				<stop  offset="1" style="stop-color:#4042E2"/>
			</linearGradient>
			<path class="st17" d="M220.1,204.1c3-0.2,8.7-0.3,11.8-0.4c1.3,0,2.5,0.9,2.8,2.2c0.6,2.5,1.4,6.8,1.3,11.4
				c0,1.4-1.2,2.5-2.5,2.5l-11.5-0.1c-1.4,0-2.6-1.1-2.7-2.5l-1-10.8C218.1,205.2,219,204.2,220.1,204.1z"/>
			<g class="st6">
				<path class="st7" d="M241.4,208.6c-1,0-1.6,0.7-1.5,1.7l0.3,1.9c0.1,1,1,1.7,2,1.7h28c1,0,1.7-0.8,1.7-1.7l0-0.5
					c0-1-0.8-1.8-1.8-1.8L241.4,208.6z"/>
			</g>
			<linearGradient id="SVGID_13_" gradientUnits="userSpaceOnUse" x1="226.7166" y1="161.2812" x2="370.269" y2="276.0316">
				<stop  offset="0" style="stop-color:#4F52FF"/>
				<stop  offset="1" style="stop-color:#4042E2"/>
			</linearGradient>
			<path class="st18" d="M282.9,204.1c3-0.2,8.7-0.3,11.8-0.4c1.3,0,2.5,0.9,2.8,2.2c0.6,2.5,1.4,6.8,1.3,11.4
				c0,1.4-1.2,2.5-2.5,2.5l-11.5-0.1c-1.4,0-2.6-1.1-2.7-2.5l-1-10.8C280.9,205.2,281.7,204.2,282.9,204.1z"/>
			<g class="st6">
				<path class="st7" d="M304.2,208.6c-1,0-1.6,0.7-1.5,1.7l0.3,1.9c0.1,1,1,1.7,2,1.7h28c1,0,1.7-0.8,1.7-1.7l0-0.5
					c0-1-0.8-1.8-1.8-1.8L304.2,208.6z"/>
			</g>
			<g>
				<path class="st7" d="M236.3,247.1C236.3,247.1,236.3,247.1,236.3,247.1l-10.7-0.1c-1.5,0-2.8-1.1-2.9-2.4l-0.9-8.9
					c-0.1-0.5,0.1-1,0.5-1.5c0.4-0.5,1-0.8,1.6-0.8l0,0c0.9-0.1,2.2-0.2,3.5-0.3c2.8-0.2,6.3-0.5,8.3-0.6c1.4,0,2.6,0.8,3,2.1
					c0.6,2,0.5,5.9,0.4,10.1C239,246,237.8,247.1,236.3,247.1z M224,234.2c-0.4,0-0.8,0.2-1.1,0.5c-0.2,0.2-0.3,0.5-0.3,0.8l0.9,8.9
					c0.1,1,1,1.7,2.1,1.7l10.6,0.1c0,0,0,0,0,0c1,0,1.9-0.7,1.9-1.6c0.1-4.1,0.2-7.9-0.4-9.8c-0.2-0.9-1.1-1.5-2.2-1.5
					c-1.9,0-5.4,0.3-8.2,0.6C226.1,234,224.9,234.1,224,234.2L224,234.2z"/>
				<path class="st2" d="M225.1,235.1c2.2-0.2,7.1-0.6,9.4-0.7c1,0,1.8,0.6,2.1,1.4c0.4,1.6,0.4,4.9,0.3,7.9c0,0.9-0.9,1.6-1.9,1.6
					l-8.5-0.1c-1,0-1.9-0.7-2-1.7l-0.7-7.1C223.7,235.8,224.3,235.2,225.1,235.1z"/>
				<g class="st6">
					<path class="st7" d="M245.7,241.2c0.3,1.2,1.4,2,2.6,2l98.4-0.8c1.1,0,2-0.9,2-2c0-1.1-0.9-1.9-2-2l-98.4-0.4
						C246.5,237.9,245.2,239.5,245.7,241.2z"/>
				</g>
				<linearGradient id="SVGID_14_" gradientUnits="userSpaceOnUse" x1="256.789" y1="192.4362" x2="202.4882" y2="285.1149">
					<stop  offset="0" style="stop-color:#4F52FF"/>
					<stop  offset="1" style="stop-color:#4042E2"/>
				</linearGradient>
				<path class="st19" d="M225.6,236.5L225.6,236.5c0.8-0.5,1.8-0.2,2.3,0.6l2.1,3.8c0.2,0.4,0.8,0.4,0.9,0l5.2-11.6
					c0.3-0.6,1.1-0.4,1.1,0.3c-0.1,3.5-1,10.3-6.7,15.9c0,0-3.1-1.2-5.6-6.7C224.5,237.9,224.8,237,225.6,236.5z"/>
				<path class="st7" d="M236.3,269.9C236.3,269.9,236.3,269.9,236.3,269.9l-10.7-0.1c-1.5,0-2.8-1.1-2.9-2.4l-0.9-8.9
					c-0.1-0.5,0.1-1,0.5-1.5c0.4-0.5,1-0.8,1.6-0.8l0,0c0.9-0.1,2.2-0.2,3.5-0.3c2.8-0.2,6.3-0.5,8.3-0.6c0,0,0,0,0,0
					c1.4,0,2.6,0.9,2.9,2.1c0.6,2,0.5,5.9,0.4,10.1C239,268.8,237.8,269.9,236.3,269.9z M224,257c-0.4,0-0.8,0.2-1.1,0.5
					c-0.2,0.2-0.3,0.5-0.3,0.8l0.9,8.9c0.1,1,1,1.7,2.1,1.7l10.6,0.1c0,0,0,0,0,0c1,0,1.9-0.7,1.9-1.6c0.1-4.1,0.2-7.9-0.4-9.8
					c-0.2-0.9-1.2-1.5-2.2-1.5c-1.9,0-5.4,0.3-8.2,0.6C226.1,256.8,224.9,256.9,224,257L224,257z"/>
				<path class="st2" d="M225.1,257.9c2.2-0.2,7.1-0.6,9.4-0.7c1,0,1.8,0.6,2.1,1.4c0.4,1.6,0.4,4.9,0.3,7.9c0,0.9-0.9,1.6-1.9,1.6
					l-8.5-0.1c-1,0-1.9-0.7-2-1.7l-0.7-7.1C223.7,258.6,224.3,258,225.1,257.9z"/>
				<g class="st6">
					<path class="st7" d="M245.7,264c0.3,1.2,1.4,2,2.6,2l98.4-0.8c1.1,0,2-0.9,2-2c0-1.1-0.9-1.9-2-2l-98.4-0.4
						C246.5,260.7,245.2,262.3,245.7,264z"/>
				</g>
				<linearGradient id="SVGID_15_" gradientUnits="userSpaceOnUse" x1="266.73" y1="198.2607" x2="212.4292" y2="290.9395">
					<stop  offset="0" style="stop-color:#4F52FF"/>
					<stop  offset="1" style="stop-color:#4042E2"/>
				</linearGradient>
				<path class="st20" d="M225.6,259.3L225.6,259.3c0.8-0.5,1.8-0.2,2.3,0.6l2.1,3.8c0.2,0.4,0.8,0.4,0.9,0l5.2-11.6
					c0.3-0.6,1.1-0.4,1.1,0.3c-0.1,3.5-1,10.3-6.7,15.9c0,0-3.1-1.2-5.6-6.7C224.5,260.7,224.8,259.8,225.6,259.3z"/>
				<path class="st7" d="M236.3,292.7C236.3,292.7,236.3,292.7,236.3,292.7l-10.7-0.1c-1.5,0-2.8-1.1-2.9-2.4l-0.9-8.9
					c-0.1-0.5,0.1-1,0.5-1.5c0.4-0.5,1-0.8,1.6-0.8l0,0c0.9-0.1,2.2-0.2,3.5-0.3c2.8-0.2,6.3-0.5,8.3-0.6c0,0,0,0,0,0
					c1.4,0,2.6,0.9,2.9,2.1c0.6,2,0.5,5.9,0.4,10.1C239,291.6,237.8,292.7,236.3,292.7z M224,279.8c-0.4,0-0.8,0.2-1.1,0.5
					c-0.2,0.2-0.3,0.5-0.3,0.8l0.9,8.9c0.1,1,1,1.7,2.1,1.7l10.6,0.1c0,0,0,0,0,0c1,0,1.9-0.7,1.9-1.6c0.1-4.1,0.2-7.9-0.4-9.8
					c-0.2-0.9-1.2-1.5-2.2-1.5c-1.9,0-5.4,0.3-8.2,0.6C226.1,279.6,224.9,279.7,224,279.8L224,279.8z"/>
				<path class="st2" d="M225.1,280.7c2.2-0.2,7.1-0.6,9.4-0.7c1,0,1.8,0.6,2.1,1.4c0.4,1.6,0.4,4.9,0.3,7.9c0,0.9-0.9,1.6-1.9,1.6
					l-8.5-0.1c-1,0-1.9-0.7-2-1.7l-0.7-7.1C223.7,281.4,224.3,280.8,225.1,280.7z"/>
				<g class="st6">
					<path class="st7" d="M245.7,286.8c0.3,1.2,1.4,2,2.6,2l98.4-0.8c1.1,0,2-0.9,2-2c0-1.1-0.9-1.9-2-2l-98.4-0.4
						C246.5,283.4,245.2,285.1,245.7,286.8z"/>
				</g>
				<linearGradient id="SVGID_16_" gradientUnits="userSpaceOnUse" x1="275.0886" y1="221.1071" x2="203.6401" y2="320.7266">
					<stop  offset="0" style="stop-color:#4F52FF"/>
					<stop  offset="1" style="stop-color:#4042E2"/>
				</linearGradient>
				<path class="st21" d="M225.6,282.1L225.6,282.1c0.8-0.5,1.8-0.2,2.3,0.6l2.1,3.8c0.2,0.4,0.8,0.4,0.9,0l5.2-11.6
					c0.3-0.6,1.1-0.4,1.1,0.3c-0.1,3.5-1,10.3-6.7,15.9c0,0-3.1-1.2-5.6-6.7C224.5,283.5,224.8,282.6,225.6,282.1z"/>
				<path class="st7" d="M236.3,315.5C236.3,315.5,236.3,315.5,236.3,315.5l-10.7-0.1c-1.5,0-2.8-1.1-2.9-2.4l-0.9-8.9
					c-0.1-0.5,0.1-1,0.5-1.5c0.4-0.5,1-0.8,1.6-0.8l0,0c0.9-0.1,2.2-0.2,3.5-0.3c2.8-0.2,6.3-0.5,8.3-0.6c0,0,0,0,0,0
					c1.4,0,2.6,0.9,2.9,2.1c0.6,2,0.5,5.9,0.4,10.1C239,314.4,237.8,315.5,236.3,315.5z M224,302.6c-0.4,0-0.8,0.2-1.1,0.5
					c-0.2,0.2-0.3,0.5-0.3,0.8l0.9,8.9c0.1,1,1,1.7,2.1,1.7l10.6,0.1c0,0,0,0,0,0c1,0,1.9-0.7,1.9-1.6c0.1-4.1,0.2-7.9-0.4-9.8
					c-0.2-0.9-1.2-1.5-2.2-1.5c-1.9,0-5.4,0.3-8.2,0.6C226.1,302.4,224.9,302.5,224,302.6L224,302.6z"/>
				<path class="st2" d="M225.1,303.5c2.2-0.2,7.1-0.6,9.4-0.7c1,0,1.8,0.6,2.1,1.4c0.4,1.6,0.4,4.9,0.3,7.9c0,0.9-0.9,1.6-1.9,1.6
					l-8.5-0.1c-1,0-1.9-0.7-2-1.7l-0.7-7.1C223.7,304.2,224.3,303.6,225.1,303.5z"/>
				<g class="st6">
					<path class="st7" d="M245.7,309.6L245.7,309.6c0.3,1.2,1.4,2,2.6,2l98.4-0.8c1.1,0,2-0.9,2-2c0-1.1-0.9-1.9-2-2l-98.4-0.4
						C246.5,306.2,245.2,307.9,245.7,309.6z"/>
				</g>
				<linearGradient id="SVGID_17_" gradientUnits="userSpaceOnUse" x1="286.612" y1="209.9095" x2="232.3111" y2="302.5883">
					<stop  offset="0" style="stop-color:#4F52FF"/>
					<stop  offset="1" style="stop-color:#4042E2"/>
				</linearGradient>
				<path class="st22" d="M225.6,304.9L225.6,304.9c0.8-0.5,1.8-0.2,2.3,0.6l2.1,3.8c0.2,0.4,0.8,0.4,0.9,0l5.2-11.6
					c0.3-0.6,1.1-0.4,1.1,0.3c-0.1,3.5-1,10.3-6.7,15.9c0,0-3.1-1.2-5.6-6.7C224.5,306.3,224.8,305.3,225.6,304.9z"/>
			</g>
		</g>
		<linearGradient id="SVGID_18_" gradientUnits="userSpaceOnUse" x1="304.1432" y1="47.6031" x2="235.5529" y2="137.8321">
			<stop  offset="0" style="stop-color:#2B3582"/>
			<stop  offset="1" style="stop-color:#150E42"/>
		</linearGradient>
		<path class="st23" d="M287.5,69.9c-5.4-3.7-10.1-3.7-13.4-2.7c-3,0.9-5,3.8-4.7,6.9l1.4,15.5l16.9,1.5
			C287.8,91.1,298.1,77.2,287.5,69.9z M280.1,82.4c-2.3,0-4.2-1.9-4.2-4.2c0-2.3,1.9-4.2,4.2-4.2s4.2,1.9,4.2,4.2
			C284.3,80.5,282.4,82.4,280.1,82.4z"/>
		<path class="st7" d="M272.6,83.1c-0.2,0-0.4-0.2-0.4-0.4l-0.2-2.5c0-0.2,0.1-0.4,0.4-0.4c0.2,0,0.4,0.1,0.4,0.4l0.2,2.5
			C273,82.8,272.8,83,272.6,83.1C272.6,83.1,272.6,83.1,272.6,83.1z M272.1,78.2c-0.2,0-0.4-0.2-0.4-0.4l-0.2-1.9
			c-0.3-3,1.6-5.7,4.5-6.6c2-0.6,4.1-0.7,6.2-0.3c0.2,0,0.4,0.3,0.3,0.5c0,0.2-0.3,0.4-0.5,0.3c-2-0.4-3.9-0.3-5.8,0.2
			c-2.5,0.7-4.1,3.1-3.9,5.7l0.2,1.9C272.6,78,272.4,78.2,272.1,78.2C272.2,78.2,272.1,78.2,272.1,78.2z"/>
		<linearGradient id="SVGID_19_" gradientUnits="userSpaceOnUse" x1="311.6671" y1="53.3224" x2="243.0767" y2="143.5515">
			<stop  offset="0" style="stop-color:#2B3582"/>
			<stop  offset="1" style="stop-color:#150E42"/>
		</linearGradient>
		<path class="st24" d="M247.8,99.6v-7.8c0-2.7,2.2-4.9,4.9-4.8l53.8,1.8c2.4,0.1,4.3,2,4.5,4.4l0.4,7.5L247.8,99.6z"/>
		<path class="st7" d="M267.9,90h-2.3c-0.2,0-0.4-0.2-0.4-0.4s0.2-0.4,0.4-0.4h2.3c0.2,0,0.4,0.2,0.4,0.4S268.1,90,267.9,90z"/>
		<path class="st7" d="M250.7,97.2c-0.2,0-0.4-0.2-0.4-0.4v-3.2c0-2.4,2-4.4,4.4-4.4h8.5c0.2,0,0.4,0.2,0.4,0.4s-0.2,0.4-0.4,0.4
			h-8.5c-2,0-3.6,1.6-3.6,3.6v3.2C251.1,97,250.9,97.2,250.7,97.2z"/>
		<linearGradient id="SVGID_20_" gradientUnits="userSpaceOnUse" x1="292.5453" y1="158.0072" x2="352.4861" y2="72.4337">
			<stop  offset="0" style="stop-color:#FF928E"/>
			<stop  offset="1" style="stop-color:#FE7062"/>
		</linearGradient>
		<path class="st25" d="M325.7,150.6L313,140.3l-12.7,10.3c1-9.7,1.5-20.5,0.9-32.3c-0.2-3.7-0.4-7.4-0.8-10.9
			c0-0.5,0.1-0.9,0.4-1.2c0.3-0.3,0.7-0.5,1.2-0.5c7.3,0,14.7,0,22,0c0.9,0,1.6,0.7,1.6,1.5c0.3,5.4,0.5,10.9,0.5,16.7
			C326.4,133.2,326.1,142.2,325.7,150.6z"/>
		<linearGradient id="SVGID_21_" gradientUnits="userSpaceOnUse" x1="303.0235" y1="58.8416" x2="255.6633" y2="145.8046">
			<stop  offset="0" style="stop-color:#4F52FF"/>
			<stop  offset="1" style="stop-color:#4042E2"/>
		</linearGradient>
		<path class="st26" d="M225.9,101.6c0.1-2.7,2.4-4.8,5.1-4.8l94.1,0c3.4,0,6.3,2.4,6.9,5.8l0.1,0.5c0.6,3.7-2.2,7-5.9,7h-96.5
			c-2.2,0-4-1.9-3.9-4.1L225.9,101.6z"/>
	</g>
	<g>
		
			<linearGradient id="SVGID_22_" gradientUnits="userSpaceOnUse" x1="-1531.687" y1="357.7509" x2="-1510.5237" y2="357.7509" gradientTransform="matrix(-1 0 0 1 -1133.6208 0)">
			<stop  offset="0" style="stop-color:#090056"/>
			<stop  offset="1" style="stop-color:#020039"/>
		</linearGradient>
		<path class="st27" d="M390.1,362c-4.9,0.2-9.7,0.1-12.9-0.1c2.9-2.1,9.6-6.6,15.2-8.3l3.8-0.2c0,0,1.3,2,1.8,6.5
			C397.4,360.7,395.5,361.8,390.1,362z"/>
		<linearGradient id="SVGID_23_" gradientUnits="userSpaceOnUse" x1="360.8746" y1="330.8244" x2="404.9665" y2="381.4182">
			<stop  offset="0" style="stop-color:#090056"/>
			<stop  offset="1" style="stop-color:#020039"/>
		</linearGradient>
		<path class="st28" d="M377.2,362C377.2,362,377.2,361.9,377.2,362c3.2,0.1,8,0.3,12.9,0.1c5.4-0.2,7.3-1.4,7.9-2.1
			c0,0.2,0,0.4,0.1,0.6c0.1,1-0.7,1.9-1.7,1.9c-4,0.3-14,1-18.9,0.7C376.9,363.2,376.7,362.3,377.2,362z"/>
		
			<linearGradient id="SVGID_24_" gradientUnits="userSpaceOnUse" x1="-1568.8638" y1="357.8038" x2="-1558.9543" y2="357.8038" gradientTransform="matrix(-1 0 0 1 -1133.6208 0)">
			<stop  offset="0" style="stop-color:#090056"/>
			<stop  offset="1" style="stop-color:#020039"/>
		</linearGradient>
		<path class="st29" d="M425.4,360.7c0.4-2.3,0.9-5.7,1.4-6.5c0.7-1.3,3.1,0,3.1,0s1.7,0.8,2.5,2.1c0.5,0.8,1.9,3.2,2.8,4.8
			c0.1,0.2,0.2,0.4,0.1,0.6l-9.6,0.3C425.4,361.6,425.3,361.2,425.4,360.7z"/>
		<linearGradient id="SVGID_25_" gradientUnits="userSpaceOnUse" x1="385.0323" y1="309.7708" x2="429.1241" y2="360.3646">
			<stop  offset="0" style="stop-color:#090056"/>
			<stop  offset="1" style="stop-color:#020039"/>
		</linearGradient>
		<path class="st30" d="M435.2,361.7c0,0.5-0.5,1-1.1,1.1l-6.9,0.2c-0.7,0-1.4-0.4-1.7-0.9L435.2,361.7z"/>
		
			<linearGradient id="SVGID_26_" gradientUnits="userSpaceOnUse" x1="-1564.6727" y1="350.9723" x2="-1558.243" y2="350.9723" gradientTransform="matrix(-1 0 0 1 -1133.6208 0)">
			<stop  offset="0" style="stop-color:#FEBBBA"/>
			<stop  offset="1" style="stop-color:#FF928E"/>
		</linearGradient>
		<path class="st31" d="M424.6,346.5c0.1,0.3,1.3,6.3,1.9,8.9c0.2,0.7,0.8,1.2,1.6,1.2c0.4,0,0.9-0.1,1.4-0.1
			c0.9-0.1,1.6-0.8,1.6-1.7c0.1-2.3,0.1-6.8-0.7-8.5C429.1,343.9,424.6,346.5,424.6,346.5z"/>
		
			<linearGradient id="SVGID_27_" gradientUnits="userSpaceOnUse" x1="-1530.6105" y1="350.5514" x2="-1525.2516" y2="350.5514" gradientTransform="matrix(-1 0 0 1 -1133.6208 0)">
			<stop  offset="0" style="stop-color:#FEBBBA"/>
			<stop  offset="1" style="stop-color:#FF928E"/>
		</linearGradient>
		<path class="st32" d="M397,348.2c-0.5,0,0.2,2.8-0.6,5.5c-0.2,0.6-0.6,1.1-1.3,1.1c-0.4,0-0.9,0-1.4,0c-0.8-0.1-1.4-0.6-1.4-1.4
			l-0.7-7.1L397,348.2z"/>
		<linearGradient id="SVGID_28_" gradientUnits="userSpaceOnUse" x1="534.0192" y1="377.8282" x2="412.4108" y2="316.5669">
			<stop  offset="0" style="stop-color:#090056"/>
			<stop  offset="1" style="stop-color:#020039"/>
		</linearGradient>
		<path class="st33" d="M382.1,273.2c0.2,1.2,8.6,50.1,9.1,75.5c0,0.4,0.3,0.8,0.7,0.8c1.1,0.1,3.1,0.3,5.2,0
			c0.3-0.1,0.5-0.3,0.5-0.6c0.3-4.7,2.7-44.6-0.2-63.4c0,0,23.9,50.2,27.5,64.1c0.1,0.3,0.4,0.6,0.7,0.5c1-0.1,3.1-0.2,4.8-0.9
			c0.6-0.2,0.9-0.9,0.8-1.5c-2-8.3-16.2-65.4-25.8-78L382.1,273.2z"/>
		
			<linearGradient id="SVGID_29_" gradientUnits="userSpaceOnUse" x1="-1517.2845" y1="268.1631" x2="-1539.2179" y2="296.5198" gradientTransform="matrix(-1 0 0 1 -1133.6208 0)">
			<stop  offset="0" style="stop-color:#CB236D"/>
			<stop  offset="1" style="stop-color:#4C246D"/>
		</linearGradient>
		<path class="st34" d="M397.4,285.8c0.1,0,0.2,0,0.2-0.1c0.1-0.1,0.1-0.3,0-0.4l-3.2-3.3c-0.1-0.1-0.3-0.1-0.4,0
			c-0.1,0.1-0.1,0.3,0,0.4l3.2,3.3C397.2,285.8,397.3,285.8,397.4,285.8z"/>
		<linearGradient id="SVGID_30_" gradientUnits="userSpaceOnUse" x1="362.7849" y1="177.1158" x2="440.5273" y2="323.103">
			<stop  offset="0" style="stop-color:#4F52FF"/>
			<stop  offset="1" style="stop-color:#4042E2"/>
		</linearGradient>
		<path class="st35" d="M374,210c7.1-1.1,21.2-2.6,30.3,0.1l-1,28.3l-33.1-3.6l-2.8-4C367.4,230.8,368.7,210.8,374,210z"/>
		
			<linearGradient id="SVGID_31_" gradientUnits="userSpaceOnUse" x1="-1276.984" y1="190.1655" x2="-1274.4774" y2="174.7086" gradientTransform="matrix(-0.9943 -0.107 -0.107 0.9943 -863.5552 -110.0837)">
			<stop  offset="0" style="stop-color:#FEBBBA"/>
			<stop  offset="1" style="stop-color:#FF928E"/>
		</linearGradient>
		<path class="st36" d="M390.5,194.9c0,0,0.7,11.2,0.5,14.7c0,0-9.2,1.5-11.4-0.1l1.7-13.3L390.5,194.9z"/>
		<g>
			
				<linearGradient id="SVGID_32_" gradientUnits="userSpaceOnUse" x1="-1268.7183" y1="164.8338" x2="-1285.7949" y2="177.9001" gradientTransform="matrix(-0.9943 -0.107 -0.107 0.9943 -863.5552 -110.0837)">
				<stop  offset="0" style="stop-color:#FEBBBA"/>
				<stop  offset="1" style="stop-color:#FF928E"/>
			</linearGradient>
			<path class="st37" d="M381.6,183.6c0,0-3.7,6.5-4.3,10.1c-0.6,3.6-1.6,5.8,2.5,7c4.1,1.2,7.8-0.5,10-3.9c0,0,3.6-5.2,3.1-7.5
				C392.5,186.9,381.6,183.6,381.6,183.6z"/>
			<linearGradient id="SVGID_33_" gradientUnits="userSpaceOnUse" x1="376.015" y1="184.4336" x2="418.6844" y2="196.0153">
				<stop  offset="0" style="stop-color:#090056"/>
				<stop  offset="1" style="stop-color:#020039"/>
			</linearGradient>
			<path class="st38" d="M388.6,194.1l-0.5-0.1c0,0,2.6-4.2,0.8-5.2c-1.8-1-9.2-3.3-10.5-6.2c-1.3-2.7,0.5-5.9,2.6-6.6
				c0.1,0,0.3,0,0.3,0.2l0.1,0.3c0.1,0.2,0.4,0.2,0.5,0l0,0c0.1-0.2,0.4-0.2,0.5,0c0.4,0.8,1.6,2.3,5.1,3.3c5,1.5,8.2,3.9,7.9,7.5
				c0,0.2,0.2,0.4,0.4,0.3c0.4-0.2,1-0.2,1.8,0.5c1.3,1.3,0.4,4.3-3,6.5c-0.2,0.1-0.2,0.3,0,0.5c0.5,0.4,1.3,1.4-1,2.3
				c-2.3,0.9-3.6,0.7-4.1,0.5c-0.1,0-0.2-0.2-0.2-0.3l0.5-3.1c0-0.2-0.1-0.3-0.2-0.3L388.6,194.1z"/>
			
				<linearGradient id="SVGID_34_" gradientUnits="userSpaceOnUse" x1="-1270.8364" y1="162.0657" x2="-1287.9131" y2="175.132" gradientTransform="matrix(-0.9943 -0.107 -0.107 0.9943 -863.5552 -110.0837)">
				<stop  offset="0" style="stop-color:#FEBBBA"/>
				<stop  offset="1" style="stop-color:#FF928E"/>
			</linearGradient>
			<path class="st39" d="M388.4,194.7c0,0,1.6-4.2,3.4-2.8c1.8,1.4-1.5,4.8-3.1,4.8L388.4,194.7z"/>
		</g>
		<g>
			
				<linearGradient id="SVGID_35_" gradientUnits="userSpaceOnUse" x1="2424.8306" y1="2451.606" x2="2314.5742" y2="2596.3528" gradientTransform="matrix(0.1855 -0.9827 0.9827 0.1855 -2507.5498 2119.6516)">
				<stop  offset="0" style="stop-color:#FF928E"/>
				<stop  offset="1" style="stop-color:#FE7062"/>
			</linearGradient>
			<path class="st40" d="M348.8,232.1l0.9-3.5c0.4-1.7,2.1-2.8,3.9-2.4l82.7,16.9c1.9,0.4,3.1,2.2,2.7,4.1l-5,23.9L348.8,232.1z"/>
			<path class="st7" d="M340.9,274l6.2-44.7c0.1-0.9,1-1.5,1.9-1.3l85,18.9c1.8,0.4,3,2.2,2.5,4l-7.1,30.9L340.9,274z"/>
			<path class="st7" d="M343.2,272l2.4-39.9c0.1-1,1-1.8,2-1.5l85.9,18.2c1.2,0.3,2,1.4,1.8,2.6l-4.6,28.8L343.2,272z"/>
			<linearGradient id="SVGID_36_" gradientUnits="userSpaceOnUse" x1="344.3194" y1="211.1763" x2="418.0767" y2="309.9257">
				<stop  offset="0" style="stop-color:#FF928E"/>
				<stop  offset="1" style="stop-color:#FE7062"/>
			</linearGradient>
			<path class="st41" d="M336.9,281.5l5.4-43.2c0.3-2.2,2.3-3.6,4.4-3.2l88,16.6c1.8,0.3,3,2.1,2.6,3.8l-7.4,39.4
				c-0.4,1.9-2.1,3.1-4,2.9l-85.3-11.4C338.3,286,336.6,283.8,336.9,281.5z"/>
			<linearGradient id="SVGID_37_" gradientUnits="userSpaceOnUse" x1="344.3227" y1="211.174" x2="418.08" y2="309.9234">
				<stop  offset="0" style="stop-color:#FF928E"/>
				<stop  offset="1" style="stop-color:#FE7062"/>
			</linearGradient>
			<path class="st42" d="M377.8,240.8L377.8,240.8c-0.3,1.8-2.1,3-3.9,2.7l-19.6-3.7c-1.8-0.3-3-2.1-2.7-3.9l0,0
				c0.3-1.8,2.1-3,3.9-2.7l19.6,3.7C376.9,237.2,378.1,239,377.8,240.8z"/>
		</g>
		<linearGradient id="SVGID_38_" gradientUnits="userSpaceOnUse" x1="376.2796" y1="169.9294" x2="454.0222" y2="315.9168">
			<stop  offset="0" style="stop-color:#4F52FF"/>
			<stop  offset="1" style="stop-color:#4042E2"/>
		</linearGradient>
		<path class="st43" d="M395.1,222.4l9.2-12.3c0,0,14.8,15.8,17.7,35.8l-9.3,4.5C409.9,243.6,404.6,234.5,395.1,222.4z"/>
		<linearGradient id="SVGID_39_" gradientUnits="userSpaceOnUse" x1="407.0947" y1="273.8436" x2="432.8488" y2="236.8125">
			<stop  offset="0" style="stop-color:#FEBBBA"/>
			<stop  offset="1" style="stop-color:#FF928E"/>
		</linearGradient>
		<path class="st44" d="M408.3,277.9c1.1-1.8,3.2-5.3,4.3-6.4c0,0-1-0.6-2.8-0.4c-1.8,0.2-3.3-0.7-3.2-1.7l8.7-2.7
			c0.4-0.8,2.1-5.4-2.6-16.4l9.3-4.5c1.1,7.5,0.5,15.6-3.3,23.7c0,0-2.9,8.9-6.2,10.9C403.9,285.6,407.9,278.6,408.3,277.9z"/>
	</g>
	<g>
		<path class="st7" d="M187.2,162l-1.8,2.3l0,0c-0.1,0.2-0.4,0.2-0.5,0.1c-0.2-0.1-0.2-0.4-0.1-0.5c0,0,0,0,0,0l1.9-2.3
			c0.1-0.2,0.3-0.2,0.5,0C187.3,161.6,187.3,161.9,187.2,162L187.2,162z"/>
		<path class="st7" d="M181,170.4l-3.1,4.9l0,0c-0.2,0.3-0.5,0.3-0.7,0.2c-0.3-0.2-0.3-0.5-0.2-0.7c0,0,0,0,0,0l3.2-4.9
			c0.1-0.2,0.4-0.3,0.7-0.1C181.1,169.9,181.1,170.2,181,170.4L181,170.4z"/>
		<path class="st7" d="M174.3,181.9l-2.5,5.3l0,0c-0.2,0.3-0.5,0.5-0.9,0.3c-0.3-0.2-0.5-0.5-0.3-0.9c0,0,0,0,0,0l2.6-5.3
			c0.1-0.3,0.5-0.4,0.8-0.3C174.3,181.2,174.5,181.6,174.3,181.9L174.3,181.9z"/>
		<path class="st7" d="M169.1,194.1l-1.8,5.5l0,0c-0.1,0.4-0.6,0.6-1,0.5c-0.4-0.1-0.6-0.6-0.5-1c0,0,0,0,0,0l1.9-5.6
			c0.1-0.4,0.5-0.6,0.9-0.4C169,193.3,169.2,193.7,169.1,194.1L169.1,194.1z"/>
		<path class="st7" d="M165.4,206.9l-1.1,5.7l0,0.1c-0.1,0.5-0.5,0.8-1,0.7c-0.5-0.1-0.8-0.5-0.7-1l0,0l1.2-5.8
			c0.1-0.4,0.5-0.7,1-0.6C165.2,205.9,165.5,206.4,165.4,206.9L165.4,206.9z"/>
		<path class="st7" d="M163.5,220l-0.3,5.8l0,0.1c0,0.5-0.5,0.9-1,0.9c-0.5,0-0.9-0.5-0.9-1l0,0l0.4-5.9c0-0.5,0.5-0.9,1-0.8
			C163.1,219,163.5,219.4,163.5,220L163.5,220z"/>
		<path class="st7" d="M163.3,233.2l0.5,5.8l0,0.1c0,0.6-0.4,1-0.9,1.1s-1-0.4-1.1-0.9l0,0l-0.5-5.9c0-0.5,0.4-1,0.9-1
			C162.8,232.2,163.3,232.6,163.3,233.2L163.3,233.2z"/>
		<path class="st7" d="M165,246.3l1.3,5.6l0,0.1c0.1,0.6-0.2,1.2-0.8,1.3c-0.6,0.1-1.2-0.2-1.3-0.8l0,0l-1.3-5.8
			c-0.1-0.6,0.2-1.1,0.8-1.2C164.3,245.4,164.9,245.7,165,246.3L165,246.3z"/>
		<path class="st7" d="M168.4,259.1l2,5.4l0,0.1c0.2,0.6-0.1,1.2-0.7,1.5c-0.6,0.2-1.2-0.1-1.5-0.7l0,0l-2-5.6
			c-0.2-0.6,0.1-1.2,0.7-1.4C167.6,258.2,168.2,258.5,168.4,259.1L168.4,259.1z"/>
		<path class="st7" d="M173.5,271.3l2.7,5.1l0,0.1c0.3,0.6,0.1,1.3-0.5,1.6c-0.6,0.3-1.3,0.1-1.6-0.5l0,0l-2.7-5.2
			c-0.3-0.6-0.1-1.3,0.5-1.5C172.5,270.5,173.2,270.7,173.5,271.3L173.5,271.3z"/>
		<path class="st7" d="M180.1,282.8l3.3,4.7l0,0.1c0.4,0.5,0.2,1.3-0.3,1.6c-0.5,0.4-1.3,0.2-1.6-0.3l0,0l-3.4-4.9
			c-0.4-0.5-0.2-1.3,0.3-1.6C179,282,179.7,282.2,180.1,282.8L180.1,282.8z"/>
		<path class="st7" d="M188.1,293.3l3.9,4.3l0,0c0.4,0.5,0.4,1.3-0.1,1.7c-0.5,0.4-1.3,0.4-1.7-0.1l0,0l-4-4.4
			c-0.4-0.5-0.4-1.2,0.1-1.7C186.8,292.7,187.6,292.8,188.1,293.3L188.1,293.3z"/>
		<path class="st7" d="M197.3,302.8l4.4,3.7l0.1,0c0.5,0.4,0.6,1.2,0.1,1.7s-1.2,0.6-1.7,0.1l0,0l-4.5-3.8c-0.5-0.4-0.6-1.2-0.1-1.7
			C196,302.3,196.7,302.3,197.3,302.8L197.3,302.8z"/>
		<path class="st7" d="M207.7,310.9l2.4,1.5l1.2,0.8c0.4,0.2,0.8,0.5,1.2,0.8c0.6,0.3,0.8,1.1,0.5,1.7c-0.3,0.6-1.1,0.8-1.7,0.5l0,0
			l0,0c-0.4-0.2-0.8-0.5-1.3-0.8l-1.3-0.8l-2.5-1.6c-0.6-0.4-0.8-1.1-0.4-1.7C206.3,310.6,207.1,310.5,207.7,310.9L207.7,310.9z"/>
		<path class="st7" d="M219.2,317.3c1.7,0.8,3.5,1.5,5.3,2.2c0.7,0.2,1,1,0.7,1.6c-0.2,0.7-1,1-1.6,0.7c-1.9-0.7-3.7-1.4-5.5-2.3
			c-0.6-0.3-0.9-1-0.6-1.7C217.8,317.3,218.6,317,219.2,317.3L219.2,317.3z"/>
		<path class="st7" d="M231.6,321.8l5.6,1.4l0.1,0c0.7,0.2,1.1,0.8,0.9,1.5c-0.2,0.7-0.8,1.1-1.5,0.9l-5.8-1.4
			c-0.7-0.2-1.1-0.8-0.9-1.5C230.1,322,230.8,321.6,231.6,321.8L231.6,321.8L231.6,321.8z"/>
		<path class="st7" d="M244.5,324.5l5.7,0.6l0.1,0c0.7,0.1,1.2,0.7,1.1,1.3c-0.1,0.7-0.7,1.2-1.3,1.1l-5.9-0.6
			c-0.7-0.1-1.2-0.7-1.1-1.4C243.1,324.9,243.7,324.4,244.5,324.5L244.5,324.5L244.5,324.5z"/>
		<path class="st7" d="M257.6,325.4l5.8-0.1l0.1,0c0.6,0,1.2,0.5,1.2,1.2c0,0.6-0.5,1.2-1.1,1.2l-5.9,0.1c-0.7,0-1.2-0.5-1.2-1.2
			C256.4,326,256.9,325.4,257.6,325.4L257.6,325.4L257.6,325.4z"/>
		<path class="st7" d="M270.9,324.8l5.7-0.7l0.1,0c0.6-0.1,1.2,0.4,1.3,1c0.1,0.6-0.4,1.2-1,1.3l-5.8,0.8c-0.6,0.1-1.2-0.4-1.3-1
			C269.7,325.4,270.2,324.9,270.9,324.8L270.9,324.8L270.9,324.8z"/>
		<path class="st7" d="M283.9,322.7l5.7-1.3l0,0c0.6-0.1,1.1,0.2,1.2,0.8c0.1,0.5-0.2,1.1-0.7,1.2l-5.7,1.4
			c-0.6,0.1-1.2-0.2-1.3-0.8C283,323.4,283.3,322.9,283.9,322.7C283.9,322.7,283.9,322.7,283.9,322.7L283.9,322.7z"/>
		<path class="st7" d="M296.8,319.3l5.5-1.9l0,0c0.5-0.2,1,0.1,1.2,0.6c0.2,0.5-0.1,1-0.6,1.2l-5.6,2c-0.5,0.2-1.1-0.1-1.2-0.6
			C296,320.1,296.2,319.5,296.8,319.3C296.7,319.4,296.7,319.4,296.8,319.3L296.8,319.3z"/>
		<path class="st7" d="M309.3,314.8l5.3-2.3l0,0c0.4-0.2,0.9,0,1.1,0.4c0.2,0.4,0,0.9-0.4,1.1l-5.3,2.5c-0.4,0.2-1,0-1.2-0.4
			C308.6,315.5,308.8,315,309.3,314.8C309.2,314.8,309.2,314.8,309.3,314.8L309.3,314.8z"/>
		<path class="st7" d="M321.3,309.1l5.1-2.8l0,0c0.3-0.2,0.7-0.1,0.9,0.3c0.2,0.3,0.1,0.7-0.3,0.9l-5.1,2.9c-0.4,0.2-0.8,0.1-1-0.3
			C320.8,309.8,320.9,309.4,321.3,309.1C321.3,309.2,321.3,309.2,321.3,309.1L321.3,309.1z"/>
		<path class="st7" d="M332.9,302.5l4.9-3.2l0,0c0.2-0.2,0.6-0.1,0.7,0.2c0.2,0.2,0.1,0.5-0.1,0.7l-4.8,3.3
			c-0.3,0.2-0.6,0.1-0.8-0.2C332.5,303.1,332.6,302.7,332.9,302.5C332.8,302.6,332.8,302.6,332.9,302.5L332.9,302.5z"/>
		<path class="st7" d="M343.9,295l2.4-1.8l0,0c0.2-0.1,0.4-0.1,0.5,0.1c0.1,0.2,0.1,0.4-0.1,0.5l-2.3,1.9c-0.2,0.1-0.4,0.1-0.6-0.1
			C343.7,295.4,343.7,295.2,343.9,295C343.9,295,343.9,295,343.9,295L343.9,295z"/>
	</g>
</g>
</svg>
